<svg width="67" height="67" viewBox="0 0 67 67" fill="none" xmlns="http://www.w3.org/2000/svg">
<path d="M14.7681 11.7463L11.7377 14.7767L21.0109 24.0499L24.0413 21.0195L14.7681 11.7463Z" fill="#012E71"/>
<path d="M8.73217 17.3322C6.43217 17.3322 4.27503 16.4322 2.66074 14.8179C-0.696402 11.4608 -0.696402 6.01788 2.66074 2.66074C6.01788 -0.696402 11.4608 -0.696402 14.8179 2.66074C18.175 6.01788 18.175 11.4608 14.8179 14.8179C13.1893 16.4465 11.0322 17.3322 8.74647 17.3322H8.73217ZM8.73217 4.43218C7.63217 4.43218 6.53216 4.84647 5.6893 5.68933C4.00359 7.37504 4.00359 10.1036 5.6893 11.7893C7.37502 13.475 10.1465 13.4179 11.7893 11.7893C13.475 10.1036 13.475 7.37504 11.7893 5.68933C10.9465 4.84647 9.84647 4.43218 8.74647 4.43218H8.73217Z" fill="#012E71"/>
<path d="M51.8023 11.7977L42.5291 21.0709L45.5596 24.1014L54.8328 14.8282L51.8023 11.7977Z" fill="#012E71"/>
<path d="M57.8751 17.3321C55.5751 17.3321 53.4179 16.4321 51.8036 14.8179C48.4465 11.4607 48.4465 6.01784 51.8036 2.6607C55.1608 -0.696447 60.6035 -0.682161 63.9607 2.6607C65.5893 4.28927 66.475 6.44641 66.475 8.73213C66.475 11.0321 65.575 13.1893 63.9607 14.8036C62.3321 16.4321 60.175 17.3179 57.8893 17.3179L57.8751 17.3321ZM57.8751 4.43213C56.7751 4.43213 55.675 4.84643 54.8322 5.68928C53.1465 7.375 53.1465 10.1036 54.8322 11.7893C56.4608 13.4178 59.2893 13.4178 60.9321 11.7893C61.7464 10.975 62.1893 9.88928 62.1893 8.74642C62.1893 7.60357 61.7464 6.51785 60.9321 5.70356C60.1178 4.88927 58.9893 4.44641 57.8893 4.44641L57.8751 4.43213Z" fill="#012E71"/>
<path d="M45.5552 42.5362L42.5247 45.5667L51.7979 54.8398L54.8284 51.8094L45.5552 42.5362Z" fill="#012E71"/>
<path d="M57.8751 66.475C55.6751 66.475 53.4751 65.6322 51.8036 63.9608C48.4465 60.6036 48.4465 55.1608 51.8036 51.8036C55.1608 48.4465 60.6035 48.4465 63.9607 51.8036C67.3178 55.1608 67.3178 60.6036 63.9607 63.9608C62.2893 65.6322 60.0893 66.475 57.8893 66.475H57.8751ZM57.8751 53.575C56.7751 53.575 55.675 53.9893 54.8322 54.8322C53.1465 56.5179 53.1465 59.2465 54.8322 60.9322C56.5179 62.6179 59.2464 62.6179 60.9321 60.9322C62.6178 59.2465 62.6178 56.5179 60.9321 54.8322C60.0893 53.9893 58.9893 53.575 57.8893 53.575H57.8751Z" fill="#012E71"/>
<path d="M21.0451 42.5319L11.7719 51.8051L14.8024 54.8355L24.0756 45.5623L21.0451 42.5319Z" fill="#012E71"/>
<path d="M8.73217 66.475C6.53217 66.475 4.33217 65.6322 2.66074 63.9608C-0.696402 60.6036 -0.696402 55.1608 2.66074 51.8036C6.01788 48.4465 11.4608 48.4465 14.8179 51.8036C18.175 55.1608 18.175 60.6036 14.8179 63.9608C13.1465 65.6322 10.9465 66.475 8.74647 66.475H8.73217ZM8.73217 53.575C7.63217 53.575 6.53216 53.9893 5.6893 54.8322C4.00359 56.5179 4.00359 59.2465 5.6893 60.9322C7.37502 62.6179 10.1036 62.6179 11.7893 60.9322C13.475 59.2465 13.475 56.5179 11.7893 54.8322C10.9465 53.9893 9.84647 53.575 8.74647 53.575H8.73217Z" fill="#012E71"/>
<path d="M57.5036 34.3608L44.6465 47.2036L34.3465 57.5036C33.775 58.0893 32.8321 58.0893 32.2607 57.5036L21.9608 47.2036L9.10362 34.3608C8.53219 33.775 8.53219 32.8465 9.10362 32.275L32.2607 9.1179C32.8321 8.54647 33.775 8.54647 34.3465 9.1179L57.5036 32.275C58.0751 32.8465 58.0751 33.775 57.5036 34.3608Z" fill="#3A55E0"/>
</svg>
