<svg width="65" height="64" viewBox="0 0 65 64" fill="none" xmlns="http://www.w3.org/2000/svg">
<path d="M51.5428 20.8H37.6428V59.6857H57.2V26.4428C57.2 23.3286 54.6571 20.8 51.5428 20.8Z" fill="#012E71"/>
<path d="M37.6429 3.65713V61.8286H29.5857V49.5571C29.5857 48.9286 29.0714 48.4143 28.4429 48.4143H17.5857C16.9572 48.4143 16.4428 48.9286 16.4428 49.5571V61.8286H8.38574V3.65713C8.38574 1.95713 9.77142 0.571411 11.4714 0.571411H34.5714C36.2714 0.571411 37.6572 1.95713 37.6572 3.65713H37.6429Z" fill="#3A55E0"/>
<path d="M63.9428 63.9857H0.571411V59.7H63.9428C64.5285 59.7 65 60.1714 65 60.7571V62.9286C65 63.5143 64.5285 63.9857 63.9428 63.9857Z" fill="#012E71"/>
</svg>
