<svg width="79" height="67" viewBox="0 0 79 67" fill="none" xmlns="http://www.w3.org/2000/svg">
<path d="M42.7428 60.8857C25.9857 60.8857 12.3714 47.2572 12.3714 30.5143C12.3714 13.7715 26 0.142883 42.7428 0.142883C59.4857 0.142883 73.1143 13.7715 73.1143 30.5143C73.1143 47.2572 59.4857 60.8857 42.7428 60.8857ZM42.7428 4.41432C28.3571 4.41432 16.6571 16.1143 16.6571 30.5C16.6571 44.8857 28.3571 56.5858 42.7428 56.5858C57.1286 56.5858 68.8286 44.8857 68.8286 30.5C68.8286 16.1143 57.1286 4.41432 42.7428 4.41432Z" fill="#012E71"/>
<path d="M64.2211 48.9432L61.1907 51.9736L75.7975 66.5804L78.8279 63.55L64.2211 48.9432Z" fill="#012E71"/>
<path d="M7.42855 21.6286H1.27141C0.569215 21.6286 0 22.1978 0 22.9V29.0572C0 29.7594 0.569215 30.3286 1.27141 30.3286H7.42855C8.13074 30.3286 8.7 29.7594 8.7 29.0572V22.9C8.7 22.1978 8.13074 21.6286 7.42855 21.6286Z" fill="#3A55E0"/>
<path d="M7.42855 33.4572H1.27141C0.569215 33.4572 0 34.0264 0 34.7286V40.8857C0 41.5879 0.569215 42.1571 1.27141 42.1571H7.42855C8.13074 42.1571 8.7 41.5879 8.7 40.8857V34.7286C8.7 34.0264 8.13074 33.4572 7.42855 33.4572Z" fill="#3A55E0"/>
<path d="M35.2286 18H25.9714C25.2614 18 24.6857 18.5756 24.6857 19.2857V28.5429C24.6857 29.2529 25.2614 29.8286 25.9714 29.8286H35.2286C35.9386 29.8286 36.5143 29.2529 36.5143 28.5429V19.2857C36.5143 18.5756 35.9386 18 35.2286 18Z" fill="#3A55E0"/>
<path d="M35.2286 33.0572H25.9714C25.2614 33.0572 24.6857 33.6328 24.6857 34.3429V43.6001C24.6857 44.3101 25.2614 44.8858 25.9714 44.8858H35.2286C35.9386 44.8858 36.5143 44.3101 36.5143 43.6001V34.3429C36.5143 33.6328 35.9386 33.0572 35.2286 33.0572Z" fill="#012E71"/>
<path d="M50.2857 18H41.0285C40.3184 18 39.7428 18.5756 39.7428 19.2857V28.5429C39.7428 29.2529 40.3184 29.8286 41.0285 29.8286H50.2857C50.9957 29.8286 51.5714 29.2529 51.5714 28.5429V19.2857C51.5714 18.5756 50.9957 18 50.2857 18Z" fill="#3A55E0"/>
<path d="M50.2857 33.0572H41.0285C40.3184 33.0572 39.7428 33.6328 39.7428 34.3429V43.6001C39.7428 44.3101 40.3184 44.8858 41.0285 44.8858H50.2857C50.9957 44.8858 51.5714 44.3101 51.5714 43.6001V34.3429C51.5714 33.6328 50.9957 33.0572 50.2857 33.0572Z" fill="#3A55E0"/>
</svg>
