<svg width="66" height="70" viewBox="0 0 66 70" fill="none" xmlns="http://www.w3.org/2000/svg">
<path d="M23.2193 43.7043H2.463C1.18162 43.7043 0.142883 44.7507 0.142883 46.0414V66.9487C0.142883 68.2394 1.18162 69.2857 2.463 69.2857H23.2193C24.5006 69.2857 25.5394 68.2394 25.5394 66.9487V46.0414C25.5394 44.7507 24.5006 43.7043 23.2193 43.7043Z" fill="#3A55E0"/>
<path d="M63.537 43.7043H42.7807C41.4994 43.7043 40.4606 44.7507 40.4606 46.0414V66.9487C40.4606 68.2394 41.4994 69.2857 42.7807 69.2857H63.537C64.8184 69.2857 65.8571 68.2394 65.8571 66.9487V46.0414C65.8571 44.7507 64.8184 43.7043 63.537 43.7043Z" fill="#3A55E0"/>
<path d="M43.3089 0.714294H22.5526C21.2713 0.714294 20.2325 1.76061 20.2325 3.05132V23.9586C20.2325 25.2493 21.2713 26.2956 22.5526 26.2956H43.3089C44.5903 26.2956 45.629 25.2493 45.629 23.9586V3.05132C45.629 1.76061 44.5903 0.714294 43.3089 0.714294Z" fill="#3A55E0"/>
<path d="M55.2433 43.7044H51.0754V37.5889H14.9256V43.7044H10.7576V36.3435C10.7576 34.7201 12.0636 33.3907 13.6752 33.3907H52.3118C53.9234 33.3907 55.2294 34.7061 55.2294 36.3435V43.7044H55.2433Z" fill="#012E71"/>
<path d="M35.0837 26.2957H30.9158V35.4899H35.0837V26.2957Z" fill="#012E71"/>
</svg>
