<svg width="66" height="67" viewBox="0 0 66 67" fill="none" xmlns="http://www.w3.org/2000/svg">
<path d="M55.5287 66.4571H10.443V59.4068L19.0476 55.8463V50.9717H23.2863V58.6721L14.7523 62.2184H51.2335L42.6855 58.6721V50.9717H46.9242V55.8463L55.5287 59.4068V66.4571Z" fill="#012E71"/>
<path d="M63.9212 2.79172C62.6355 1.5201 61.0813 0.870178 59.2869 0.870178H6.71277C4.90425 0.870178 3.36423 1.5201 2.07849 2.79172C0.778622 4.09159 0.142822 5.63165 0.142822 7.44017V46.8743C0.142822 48.6828 0.778622 50.237 2.07849 51.5086C3.36423 52.7944 4.90425 53.4443 6.71277 53.4443H59.2869C61.0954 53.4443 62.6355 52.7944 63.9212 51.5086C65.2211 50.237 65.8569 48.6828 65.8569 46.8743V7.44017C65.871 5.63165 65.2211 4.09159 63.9212 2.79172ZM30.8028 36.3482H25.7728C25.0099 36.3482 24.3034 35.9808 23.8796 35.345L18.3269 27.1502L23.8796 18.9695C24.3034 18.3337 25.0099 17.9663 25.7728 17.9663H30.8028L24.5577 27.1502L30.8028 36.3482ZM42.1201 35.345C41.6963 35.9808 40.9898 36.3482 40.2269 36.3482H35.1969L41.442 27.1502L35.1969 17.9663H40.2269C40.9898 17.9663 41.6963 18.3337 42.1201 18.9695L47.6728 27.1502L42.1201 35.345Z" fill="#3A55E0"/>
</svg>
