<svg width="68" height="66" viewBox="0 0 68 66" fill="none" xmlns="http://www.w3.org/2000/svg">
<path d="M54.6 7.81433H3.85725C2.15725 7.81433 0.771484 9.20003 0.771484 10.9V51.6143C0.771484 53.3286 2.15725 54.7 3.85725 54.7H33.2001C32.2286 52.1715 30.9573 50.0572 29.943 48.7143C29.2715 47.8286 29.0143 46.6429 29.4286 45.6143C29.9429 44.3286 31.1287 43.6429 32.3144 43.6429C33.0429 43.6429 33.7858 43.9 34.3858 44.4429L38.1001 48.6C38.1572 48.6857 38.2858 48.6286 38.2858 48.5286V30.5429C38.2858 28.8143 39.5573 27.2429 41.2858 27.1143C42.2858 27.0286 43.2144 27.4 43.8715 28.0572C44.4715 28.6429 44.8287 29.4715 44.8287 30.3715V42.0429H57.6858V10.9C57.6858 9.20003 56.3 7.81433 54.6 7.81433ZM38.4287 25.8C38.4287 26.9143 37.5143 27.8286 36.4001 27.8286H10.6001C9.47149 27.8286 8.57152 26.9143 8.57152 25.8V20.0286C8.57152 18.9 9.47149 18 10.6001 18H36.4001C37.5143 18 38.4287 18.9 38.4287 20.0286V25.8Z" fill="#3A55E0"/>
<path d="M56.6858 0.928589H1.7715C1.21922 0.928589 0.771484 1.3763 0.771484 1.92858V4.21431C0.771484 4.76659 1.21922 5.2143 1.7715 5.2143H56.6858C57.2381 5.2143 57.6858 4.76659 57.6858 4.21431V1.92858C57.6858 1.3763 57.2381 0.928589 56.6858 0.928589Z" fill="#012E71"/>
<path d="M41.5573 27.1C42.4573 27.1 43.2716 27.4572 43.8716 28.0572C44.4716 28.6429 44.8287 29.4715 44.8287 30.3715V42.0429H59.0001C61.1286 42.0429 62.8429 43.7572 62.8429 45.8858V56.7C62.8429 59.4429 60.6001 61.6857 57.8572 61.6857H40.5001C40.3429 61.6857 40.2001 61.6857 40.0572 61.6429C39.5286 61.6286 35.5858 61.2143 33.3715 55.1429C32.3858 52.4143 31.0144 50.1429 29.943 48.7143C29.2716 47.8286 29.0143 46.6572 29.4286 45.6143C29.9429 44.3286 31.1287 43.6429 32.3144 43.6429C33.0429 43.6429 33.7858 43.9 34.3858 44.4429L38.1001 48.6C38.1001 48.6 38.1572 48.6429 38.1858 48.6429C38.2429 48.6429 38.3001 48.6 38.3001 48.5286V30.5429C38.3001 28.8143 39.5715 27.2429 41.3001 27.1143C41.3858 27.1143 41.4858 27.1143 41.5715 27.1143M41.5573 22.8143C41.3573 22.8143 41.1572 22.8143 40.9429 22.8429C37.0429 23.1572 34.0001 26.5429 34.0001 30.5429V39.5572C33.4572 39.4286 32.8858 39.3572 32.3144 39.3572C29.2715 39.3572 26.5715 41.2 25.4429 44.0286C24.5001 46.4143 24.9001 49.1143 26.5144 51.2715C27.0429 51.9715 28.3572 53.8715 29.3429 56.6C32.4286 65.0572 38.5429 65.8572 39.8001 65.9286C40.0144 65.9572 40.243 65.9572 40.4715 65.9715H44.0474H44.3429H57.8572C62.9715 65.9715 67.1287 61.8143 67.1287 56.7V45.8858C67.1287 41.4 63.4858 37.7572 59.0001 37.7572H49.1144V30.3715C49.1144 28.3429 48.3001 26.3857 46.8572 24.9857C45.4715 23.6 43.5716 22.8143 41.5573 22.8143Z" fill="#012E71"/>
</svg>
