<svg width="57" height="71" viewBox="0 0 57 71" fill="none" xmlns="http://www.w3.org/2000/svg">
<path d="M8.1717 35.7285H0.0145264V66.2285H8.1717V35.7285Z" fill="#3A55E0"/>
<path d="M8.1717 64.8V67.5286C8.1717 68 7.90028 68.4428 7.47171 68.6571L4.72888 70.0286C4.32888 70.2286 3.87173 70.2286 3.47173 70.0286L0.714599 68.6571C0.286028 68.4428 0.0145264 68.0143 0.0145264 67.5286V64.8H8.1717Z" fill="#012E71"/>
<path d="M8.1717 36.9714V34.2428C8.1717 33.7714 7.90028 33.3285 7.47171 33.1143L4.72888 31.7428C4.32888 31.5428 3.87173 31.5428 3.47173 31.7428L0.714599 33.1143C0.286028 33.3285 0.0145264 33.7571 0.0145264 34.2428V36.9714H8.1717Z" fill="#3A55E0"/>
<path d="M48.3146 66.2285H56.4717L56.4717 35.7285H48.3146V66.2285Z" fill="#3A55E0"/>
<path d="M48.3145 64.8V67.5286C48.3145 68 48.586 68.4428 49.0146 68.6571L51.7574 70.0286C52.1574 70.2286 52.6146 70.2286 53.0146 70.0286L55.7717 68.6571C56.2003 68.4428 56.4717 68.0143 56.4717 67.5286V64.8H48.3145Z" fill="#012E71"/>
<path d="M48.3145 36.9714V34.2428C48.3145 33.7714 48.586 33.3285 49.0146 33.1143L51.7574 31.7428C52.1574 31.5428 52.6146 31.5428 53.0146 31.7428L55.7717 33.1143C56.2003 33.3285 56.4717 33.7571 56.4717 34.2428V36.9714H48.3145Z" fill="#3A55E0"/>
<path d="M20.2432 43.4286V67H12.086V32.0857C12.3289 32.6 12.5861 33.1 12.8575 33.6143C13.5861 35.0143 14.4431 36.4143 15.3717 37.7571C16.3431 39.1286 17.3861 40.4285 18.4861 41.6143C19.0718 42.2571 19.6575 42.8714 20.2432 43.4286Z" fill="#3A55E0"/>
<path d="M20.2432 64.8V67.5286C20.2432 68 19.9718 68.4428 19.5432 68.6571L16.8003 70.0286C16.4003 70.2286 15.9432 70.2286 15.5432 70.0286L12.786 68.6571C12.3574 68.4428 12.086 68.0143 12.086 67.5286V64.8H20.2432Z" fill="#012E71"/>
<path d="M36.2432 43.4286V67H44.4002V32.0857C44.1574 32.6 43.9003 33.1 43.6289 33.6143C42.9003 35.0143 42.0431 36.4143 41.1146 37.7571C40.1431 39.1286 39.1003 40.4285 38.0003 41.6143C37.4146 42.2571 36.8289 42.8714 36.2432 43.4286Z" fill="#3A55E0"/>
<path d="M36.2432 64.8V67.5286C36.2432 68 36.5146 68.4428 36.9431 68.6571L39.686 70.0286C40.086 70.2286 40.5431 70.2286 40.9431 70.0286L43.7003 68.6571C44.1288 68.4428 44.4002 68.0143 44.4002 67.5286V64.8H36.2432Z" fill="#012E71"/>
<path d="M32.3289 46.7714V67H24.1717V46.7857C25.486 47.7714 26.6717 48.5285 27.6574 49.1142L28.2288 49.4571L28.8289 49.1142C29.8146 48.5285 31.0146 47.7571 32.3289 46.7714Z" fill="#3A55E0"/>
<path d="M32.3289 64.8V67.5285C32.3289 68 32.0574 68.4428 31.6288 68.6571L28.886 70.0285C28.486 70.2285 28.0288 70.2285 27.6288 70.0285L24.8717 68.6571C24.4431 68.4428 24.1717 68.0142 24.1717 67.5285V64.8H32.3289Z" fill="#012E71"/>
<path d="M28.2 51.9428L26.5571 50.9571C24.1428 49.5285 20.4999 47 16.8999 43.0571C15.7571 41.8285 14.6571 40.4571 13.6285 39C12.6285 37.5571 11.7285 36.0857 10.9571 34.6C10.2571 33.2714 9.61424 31.9 9.08567 30.5571C7.27138 25.9285 6.28561 20.8857 6.17133 15.5857L6.09991 13.6571L28.2428 0.871399L50.3999 13.6571L50.3285 15.6285C50.2142 20.9 49.2285 25.9285 47.4143 30.5428C46.8143 32.0285 46.1857 33.3857 45.5285 34.6143C44.7285 36.1428 43.8285 37.6285 42.8428 39C41.9571 40.2857 40.8571 41.6571 39.5999 43.0428C36.0428 46.9285 32.3714 49.4857 29.9143 50.9571L28.1857 51.9428H28.2ZM10.4713 16.0857C10.6428 20.6857 11.5142 25.0143 13.0714 28.9857C13.5428 30.1857 14.1142 31.4 14.7428 32.6C15.4428 33.9285 16.2428 35.2571 17.1428 36.5428C18.0571 37.8285 19.0428 39.0428 20.0714 40.1571C23.0714 43.4428 26.0999 45.6428 28.2571 46.9571C30.4142 45.6143 33.4856 43.4 36.4571 40.1428C37.5856 38.9 38.5571 37.6714 39.3571 36.5142C40.2285 35.2857 41.0428 33.9714 41.7571 32.5857C42.3571 31.4857 42.9142 30.2571 43.4428 28.9428C44.9999 24.9714 45.8714 20.6428 46.0428 16.0714L28.2571 5.81425L10.4856 16.0714L10.4713 16.0857Z" fill="#012E71"/>
<path d="M28.2431 41.8C26.7288 40.6857 24.9717 39.1857 23.2288 37.2714C22.3145 36.2714 21.4432 35.2 20.6289 34.0571C19.8575 32.9428 19.1432 31.7714 18.5432 30.6142C17.9717 29.5428 17.4718 28.4714 17.0575 27.4143C15.9575 24.6285 15.2431 21.6285 14.9288 18.4571L28.2431 10.7714L41.5717 18.4571C41.2574 21.6142 40.5432 24.6142 39.4432 27.3857C38.986 28.5285 38.486 29.6 37.9717 30.5714C37.3146 31.8285 36.6146 32.9714 35.8574 34.0428C35.1289 35.1 34.2574 36.1714 33.2574 37.2714C31.5289 39.1571 29.7717 40.6571 28.2431 41.7857V41.8Z" fill="#3A55E0"/>
</svg>
