<svg width="77" height="61" viewBox="0 0 77 61" fill="none" xmlns="http://www.w3.org/2000/svg">
<path d="M24.1 48.5H9.38573C6.97145 48.5 5.00001 46.5429 5.00001 44.1143V9.52856C5.00001 7.11428 6.95716 5.14286 9.38573 5.14286H56.6571C59.0714 5.14286 61.0428 7.09999 61.0428 9.52856V39H65.3286V9.52856C65.3286 4.74285 61.4428 0.857147 56.6571 0.857147H9.38573C4.60002 0.857147 0.714294 4.74285 0.714294 9.52856V44.1143C0.714294 48.9 4.60002 52.7857 9.38573 52.7857H24.1C24.6 52.7857 25.0143 52.3714 25.0143 51.8714V49.4C25.0143 48.9 24.6 48.4857 24.1 48.4857V48.5Z" fill="#012E71"/>
<path d="M76.4 58.0286C77.1 58.9571 76.4429 60.2857 75.2715 60.2857H34.6857C31.5714 60.2857 29.0714 57.7714 29.0714 54.6714V42.5857C29.0714 39.4857 31.5714 36.9714 34.6857 36.9714H65.7286C68.8286 36.9714 71.3429 39.4857 71.3429 42.5857V51.3857L76.3857 58.0286H76.4Z" fill="#3A55E0"/>
<path d="M25.4715 19.0571L24.2 23.0143C23.9 23.9714 23.0572 24.6143 22.1286 24.6143H12.3571L14.2 19.0571L12.3571 13.5286H22.1286C23.0572 13.5286 23.9 14.1714 24.2 15.1286L25.4572 19.0714L25.4715 19.0571Z" fill="#3A55E0"/>
<path d="M40.0571 19.0571L38.7715 23.0286C38.4572 23.9857 37.6286 24.6143 36.7 24.6143H26.9429L28.7857 19.0571L26.9429 13.5286H36.7C37.6286 13.5286 38.4572 14.1714 38.7715 15.1143L40.0428 19.0571H40.0571Z" fill="#3A55E0"/>
</svg>
