<svg width="58" height="68" viewBox="0 0 58 68" fill="none" xmlns="http://www.w3.org/2000/svg">
<path d="M16.6287 46.2001L8.97156 67.0858C8.84299 67.4429 9.10011 67.8144 9.48582 67.8144H12.743C13.1572 67.8144 13.5144 67.5572 13.6573 67.1715L21.343 46.1858H16.643L16.6287 46.2001Z" fill="#012E71"/>
<path d="M41.1715 46.2002H36.4716L44.1572 67.1859C44.3001 67.5716 44.6573 67.8288 45.0715 67.8288H48.3287C48.7001 67.8288 48.9716 67.4573 48.843 67.1002L41.1858 46.2145L41.1715 46.2002Z" fill="#012E71"/>
<path d="M53.5144 7.27148H4.27151C2.18579 7.27148 0.485779 8.97148 0.485779 11.0429V46.0001C0.485779 48.0715 2.18579 49.7715 4.27151 49.7715H53.5144C55.6001 49.7715 57.3001 48.0715 57.3001 46.0001V11.0429C57.3001 8.97148 55.6001 7.27148 53.5144 7.27148ZM17.7144 28.5286C17.7144 22.3429 22.7286 17.3286 28.9001 17.3286C33.3001 17.3286 37.1144 19.8572 38.9287 23.5572C39.7001 25.0572 40.1144 26.7429 40.1144 28.5286C40.1144 34.7143 35.1001 39.7286 28.9144 39.7286C22.7286 39.7286 17.7286 34.7143 17.7286 28.5286H17.7144Z" fill="#3A55E0"/>
<path d="M56.5855 0.271484H1.21404C0.819552 0.271484 0.499756 0.591281 0.499756 0.98577V3.97148C0.499756 4.36597 0.819552 4.68576 1.21404 4.68576H56.5855C56.98 4.68576 57.2997 4.36597 57.2997 3.97148V0.98577C57.2997 0.591281 56.98 0.271484 56.5855 0.271484Z" fill="#012E71"/>
<path d="M38.9144 23.5572L28.8858 28.5286V17.3286C33.2858 17.3286 37.1001 19.8572 38.9144 23.5572Z" fill="#012E71"/>
</svg>
