<svg width="53" height="64" viewBox="0 0 53 64" fill="none" xmlns="http://www.w3.org/2000/svg">
<path d="M42.4004 53.9998L37.7576 62.2855C34.2861 63.0141 30.4004 63.4141 26.2576 63.4141C11.9147 63.4141 0.286133 58.5712 0.286133 52.5998V36.3569C0.286133 42.3284 11.9147 47.1855 26.2576 47.1855C30.4004 47.1855 34.3147 46.7712 37.7862 46.0569L42.3862 53.9998H42.4004Z" fill="#3A55E0"/>
<path d="M52.2431 36.3428V52.5856C52.2431 56.2285 47.9145 59.4571 41.2717 61.4142L45.4288 53.9714L40.4717 45.4142C47.5574 43.4856 52.2431 40.1428 52.2431 36.3428Z" fill="#3A55E0"/>
<path d="M42.4722 27.8999V32.0856C46.3151 33.5713 48.3151 35.3428 48.3151 36.357C48.3151 38.357 40.5865 43.257 26.2722 43.257C11.9579 43.257 4.22935 38.357 4.22935 36.357C4.22935 35.3999 6.01507 33.7856 9.41507 32.357V28.1285C3.84365 30.1142 0.300781 33.057 0.300781 36.357C0.300781 42.3285 11.9293 47.1856 26.2722 47.1856C40.6151 47.1856 52.2437 42.3428 52.2437 36.357C52.2437 32.9285 48.4151 29.8856 42.4722 27.8999Z" fill="#012E71"/>
<path d="M19.4436 30.2142L14.6008 37.3142C6.11508 35.5285 0.300781 31.8713 0.300781 27.6428V11.3999C0.300781 15.6142 6.0865 19.2713 14.5008 21.057L19.4436 30.2142Z" fill="#3A55E0"/>
<path d="M52.2434 11.3857V27.6286C52.2434 33.6 40.6005 38.4429 26.2577 38.4429C23.1577 38.4429 20.1862 38.2143 17.4434 37.8L22.5291 30.3715L17.8005 21.6286C20.4576 22.0143 23.2862 22.2286 26.2577 22.2286C40.6005 22.2286 52.2434 17.3715 52.2434 11.4V11.3857Z" fill="#3A55E0"/>
<path d="M26.2722 4.49986C40.5865 4.49986 48.3151 9.39986 48.3151 11.3999C48.3151 13.3999 40.5865 18.2999 26.2722 18.2999C11.9579 18.2999 4.22935 13.3999 4.22935 11.3999C4.22935 9.39986 11.9579 4.49986 26.2722 4.49986ZM26.2722 0.571289C11.9293 0.571289 0.300781 5.41415 0.300781 11.3999C0.300781 17.3856 11.9293 22.2284 26.2722 22.2284C40.6151 22.2284 52.2437 17.3856 52.2437 11.3999C52.2437 5.41415 40.6151 0.571289 26.2722 0.571289Z" fill="#012E71"/>
</svg>
