<svg width="1030" height="16" viewBox="0 0 1030 16" fill="none" xmlns="http://www.w3.org/2000/svg">
<path d="M14.5146 6.80488C13.3385 7.67542 12.3769 8.78436 11.6824 10.0418C10.9403 11.375 10.5021 12.8797 10.4201 14.4367C10.4071 14.6902 10.2392 14.9065 10.0006 14.9755C9.9521 14.9886 9.90548 14.9979 9.857 14.9998C9.66122 15.0054 9.47476 14.9103 9.35729 14.7406C8.46229 13.4615 7.29507 12.421 5.95816 11.6826C4.62125 10.9405 3.12026 10.5004 1.55961 10.4203C1.31162 10.4072 1.09346 10.2394 1.02447 10.0007C1.01142 9.95225 1.0021 9.90564 1.00023 9.85716C0.99464 9.66137 1.08973 9.47491 1.25568 9.35744C2.53479 8.46429 3.57895 7.29518 4.31733 5.95825C5.0557 4.62132 5.49761 3.1203 5.57965 1.56335C5.5927 1.30976 5.75678 1.09346 5.99918 1.02447C6.04766 1.01142 6.09427 1.0021 6.14275 1.00023C6.33853 0.99464 6.52499 1.08974 6.64246 1.25569C7.53746 2.53481 8.70469 3.579 10.0416 4.31738C11.3748 5.05577 12.8795 5.49955 14.4364 5.57973C14.69 5.59278 14.9063 5.75687 14.9753 5.99927C15.0897 6.39068 14.7848 6.60488 14.5146 6.80488Z" fill="#B38882"/>
<path d="M26.9208 14.411L26.9208 14.4103C27.0068 12.7774 27.4663 11.1988 28.2451 9.79943C28.9737 8.4803 29.9828 7.31667 31.2171 6.403L31.2338 6.39066C31.2982 6.34298 31.3489 6.30552 31.3954 6.26651C31.4447 6.22516 31.4732 6.19517 31.4893 6.17367C31.4947 6.16649 31.4979 6.1614 31.4996 6.15821C31.4991 6.15446 31.4979 6.14838 31.4954 6.13955L31.4944 6.13614L31.4944 6.13614C31.49 6.1206 31.4816 6.10862 31.4693 6.09911C31.4565 6.08918 31.437 6.08042 31.4107 6.07907L31.4107 6.07907C29.776 5.99488 28.1975 5.52911 26.7996 4.75492C25.3961 3.9797 24.1715 2.88393 23.2328 1.54233L23.6425 1.25569M26.9208 14.411L18.5859 9.92096C18.5858 9.92096 18.5857 9.92095 18.5856 9.92095C18.5446 9.91866 18.5147 9.89095 18.5056 9.86454C18.5019 9.84986 18.5005 9.84208 18.5 9.83891C18.5007 9.81754 18.5115 9.78893 18.5446 9.76554L18.2557 9.35744L18.5419 9.76739C19.8842 8.83017 20.9799 7.60334 21.755 6.19998C22.529 4.79849 22.9928 3.22403 23.079 1.58966L23.079 1.58905C23.0803 1.5628 23.0891 1.54329 23.099 1.53043C23.1081 1.51874 23.1193 1.51063 23.1338 1.50606C23.1495 1.50195 23.1577 1.50051 23.161 1.50003C23.1824 1.5007 23.211 1.51153 23.2344 1.54456L23.6425 1.25569M26.9208 14.411C26.9184 14.4577 26.8903 14.4856 26.8644 14.4943C26.8497 14.4981 26.8419 14.4995 26.8387 14.5C26.8186 14.4993 26.7916 14.4895 26.7684 14.456L26.767 14.4539M26.9208 14.411L26.767 14.4539M23.6425 1.25569C23.525 1.08974 23.3385 0.99464 23.1428 1.00023L31.4364 5.57973C29.8795 5.49955 28.3748 5.05577 27.0416 4.31738C25.7047 3.579 24.5375 2.53481 23.6425 1.25569ZM26.767 14.4539C25.828 13.1119 24.6033 12.0202 23.2005 11.2453L26.767 14.4539Z" stroke="#BF9892"/>
<line x1="1030" y1="8.5" x2="36" y2="8.49991" stroke="#3A55E0"/>
<rect x="36" y="6" width="539" height="5" fill="#B38882"/>
</svg>
