<svg width="376" height="52" viewBox="0 0 376 52" fill="none" xmlns="http://www.w3.org/2000/svg">
<path d="M0 51.2551V0H22.8599C38.4819 0 48.1861 9.8186 48.1861 25.6292C48.1861 41.4398 38.4819 51.2584 22.8599 51.2584H0V51.2551ZM22.8567 42.5604C33.9357 42.5604 38.4529 37.6561 38.4529 25.6292C38.4529 13.6023 33.9357 8.69798 22.8567 8.69798H9.21801V42.5604H22.8567Z" fill="#253294"/>
<path d="M80.7468 0H68.7727L46.428 51.2551H56.731L72.2403 15.514L74.6873 9.41649L77.1407 15.5338L92.6404 51.2551H103.092L80.7468 0Z" fill="#253294"/>
<path d="M143.444 51.2551L121.315 21.9246L115.999 14.2813L116.234 21.2951V51.2551H106.942V0H116.447L138.434 29.4097L143.953 37.5242L143.657 30.1908L143.653 0H152.949V51.2551H143.444Z" fill="#253294"/>
<path d="M183.217 52C168.274 52 159.707 43.9315 159.707 29.8612V0H168.928V29.3404C168.928 39.0107 172.933 42.7813 183.217 42.7813C193.501 42.7813 197.506 39.014 197.506 29.3404V0H206.801V29.8612C206.801 43.9283 198.205 52 183.217 52Z" fill="#253294"/>
<path d="M264.202 51.2551V19.9833L264.389 15.303L262.338 20.2733L248.693 48.2855H238.361L224.735 20.3162L222.665 15.303L222.852 19.9536V51.2551H213.556V0H225.405L239.61 29.2317L243.667 38.6943L247.573 29.2745L261.649 0H273.498V51.2551H264.202Z" fill="#253294"/>
<path d="M287.491 8.54307C287.491 3.36845 290.9 0 296.077 0C300.672 0 303.866 2.37637 303.866 6.21614V6.41389H300.987V6.21614C300.987 3.83977 299.368 2.55106 296.003 2.55106C292.108 2.55106 290.247 4.40667 290.247 8.54307C290.247 12.6795 292.085 14.512 295.881 14.512C299.677 14.512 301.274 13.4211 301.274 10.6228V10.3987H295.276V8.36838H303.863V16.8389H301.493V13.2464H301.322C300.646 15.6722 298.589 17.0828 295.421 17.0828C290.655 17.0828 287.487 13.7144 287.487 8.53977L287.491 8.54307Z" fill="#253294"/>
<path d="M307.037 16.8388V0.24707H315.454C319.131 0.24707 321.404 2.03017 321.404 5.12506C321.404 7.87387 319.639 9.55809 316.59 9.72948V9.90417C317.849 10.2502 318.429 10.9918 319.008 12.0333L321.716 16.8388H318.715L316.127 12.2575C315.402 10.9457 314.652 10.4019 312.62 10.4019H309.645V16.8388H307.034H307.037ZM309.649 8.34519H315.431C317.608 8.34519 318.696 7.57723 318.696 5.4975C318.696 3.41776 317.608 2.64981 315.431 2.64981H309.649V8.34519Z" fill="#253294"/>
<path d="M323.777 8.54307C323.777 3.36845 327.138 0 332.219 0C337.299 0 340.686 3.36845 340.686 8.54307C340.686 13.7177 337.348 17.0861 332.219 17.0861C327.09 17.0861 323.777 13.7177 323.777 8.54307ZM337.927 8.54307C337.927 4.40667 336.063 2.55106 332.219 2.55106C328.374 2.55106 326.533 4.40667 326.533 8.54307C326.533 12.6795 328.371 14.512 332.219 14.512C336.066 14.512 337.927 12.6795 337.927 8.54307Z" fill="#253294"/>
<path d="M343.491 9.95361V0.24707H346.079V9.77892C346.079 13.121 347.531 14.5086 351.086 14.5086C354.641 14.5086 356.093 13.121 356.093 9.77892V0.24707H358.707V9.95361C358.707 14.4592 355.948 17.086 351.086 17.086C346.224 17.086 343.491 14.4624 343.491 9.95361Z" fill="#253294"/>
<path d="M361.994 16.8388V0.24707H369.928C373.531 0.24707 376 2.35317 376 6.04133C376 9.72948 373.534 11.8356 369.928 11.8356H364.606V16.8388H361.994ZM364.606 2.64981V9.43614H369.686C372.13 9.43614 373.389 8.49351 373.389 6.04463C373.389 3.59574 372.13 2.6531 369.686 2.6531H364.606V2.64981Z" fill="#253294"/>
<path d="M81.291 41.6576C79.9902 42.5871 78.9342 43.8033 78.184 45.1941C77.4274 46.5817 76.983 48.1473 76.9025 49.7689C76.8897 50.0326 76.719 50.2567 76.4775 50.3292C76.4292 50.3424 76.381 50.3523 76.3327 50.3523C76.133 50.3589 75.9431 50.2567 75.8239 50.082C74.916 48.7505 73.7279 47.6694 72.3692 46.9014C71.0105 46.1269 69.4844 45.672 67.897 45.5896C67.6427 45.5765 67.4237 45.4018 67.3529 45.1546C67.34 45.1051 67.3304 45.0557 67.3304 45.0063C67.3239 44.8019 67.4237 44.6075 67.5912 44.4855C68.8919 43.5561 69.9512 42.3399 70.7046 40.949C71.4548 39.5581 71.9056 37.9958 71.9861 36.3742C71.9989 36.1105 72.1664 35.8864 72.4111 35.8139C72.4593 35.8007 72.5076 35.7908 72.5559 35.7908C72.7556 35.7842 72.9455 35.8864 73.0647 36.0578C73.9726 37.3894 75.1607 38.4737 76.5194 39.245C77.8749 40.0129 79.4042 40.4744 80.9883 40.5568C81.2459 40.5699 81.4649 40.7413 81.5357 40.9918C81.6065 41.2456 81.5067 41.5093 81.2974 41.6609L81.291 41.6576Z" fill="#B38882"/>
</svg>
