<svg width="32" height="32" viewBox="0 0 32 32" fill="none" xmlns="http://www.w3.org/2000/svg">
<path d="M29.3337 13.4604V18.5398C29.3337 18.8953 29.0543 19.1747 28.6987 19.1747H21.1051L18.8702 18.8699L19.1749 21.1048V28.6985C19.1749 29.0541 18.8956 29.3334 18.54 29.3334H13.4606C13.1051 29.3334 12.8257 29.0541 12.8257 28.6985V21.1048L13.1305 18.8699L10.8956 19.1747H3.30191C2.94636 19.1747 2.66699 18.8953 2.66699 18.5398V13.4604C2.66699 13.1048 2.94636 12.8255 3.30191 12.8255H10.8956L13.1305 13.1302L12.8257 10.8953V3.30167C12.8257 2.94611 13.1051 2.66675 13.4606 2.66675H18.54C18.8956 2.66675 19.1749 2.94611 19.1749 3.30167V10.8953L18.8702 13.1302L21.1051 12.8255H28.6987C29.0543 12.8255 29.3337 13.1048 29.3337 13.4604Z" fill="#253294"/>
</svg>
