<svg width="14" height="14" viewBox="0 0 14 14" fill="none" xmlns="http://www.w3.org/2000/svg">
<path d="M5.80488 0.485403C6.67541 1.66149 7.78436 2.62312 9.04175 3.31757C10.375 4.05967 11.8797 4.49785 13.4367 4.57989C13.6902 4.59295 13.9065 4.76076 13.9755 4.99942C13.9886 5.0479 13.9979 5.09452 13.9998 5.143C14.0054 5.33878 13.9103 5.52524 13.7406 5.64271C12.4615 6.53771 11.421 7.70493 10.6826 9.04184C9.9405 10.3787 9.50045 11.8797 9.42027 13.4404C9.40722 13.6884 9.2394 13.9065 9.00073 13.9755C8.95225 13.9886 8.90564 13.9979 8.85716 13.9998C8.66137 14.0054 8.47491 13.9103 8.35744 13.7443C7.46429 12.4652 6.29518 11.421 4.95825 10.6827C3.62132 9.9443 2.1203 9.50239 0.563347 9.42035C0.30976 9.4073 0.0934643 9.24322 0.0244735 9.00082C0.0114212 8.95234 0.00209811 8.90573 0.000233496 8.85725C-0.00536036 8.66147 0.0897351 8.47501 0.255686 8.35754C1.53481 7.46254 2.579 6.29531 3.31738 4.9584C4.05577 3.62523 4.49955 2.12051 4.57973 0.56358C4.59278 0.309997 4.75687 0.093705 4.99927 0.0247162C5.39067 -0.0896943 5.60488 0.215202 5.80488 0.485403Z" fill="#BF9892"/>
</svg>
