<svg width="78" height="68" viewBox="0 0 78 68" fill="none" xmlns="http://www.w3.org/2000/svg">
<path d="M60.6288 56.7002C61.6431 59.0002 60.7574 61.6859 58.5574 62.9431L51.8574 66.7716C51.086 67.2145 50.2289 67.4288 49.3717 67.4288C47.8431 67.4288 46.3289 66.7288 45.3574 65.4288L43.0574 62.3288C42.2289 61.2145 41.1146 60.3574 39.8146 59.8574C38.9431 59.5145 38.0146 59.3431 37.1003 59.3431C36.186 59.3431 35.2431 59.5145 34.3717 59.8574C33.0717 60.3574 31.9574 61.2145 31.1289 62.3288L28.8289 65.4145C27.8574 66.7288 26.3431 67.4288 24.8146 67.4288C23.9717 67.4288 23.1146 67.2145 22.3288 66.7716L15.6288 62.9431C13.4288 61.6859 12.5431 59.0002 13.5574 56.7002L15.1146 53.1716C15.6717 51.9145 15.8574 50.5145 15.6574 49.1574C15.3717 47.3145 14.4003 45.6431 12.9288 44.4859C11.8431 43.6288 10.5289 43.1002 9.14314 42.9431L5.28599 42.5145C2.77171 42.2288 0.857422 40.1288 0.857422 37.6145V29.9574C0.857422 27.4431 2.77171 25.3431 5.28599 25.0574L9.14314 24.6288C10.5289 24.4716 11.8431 23.9431 12.9288 23.0859C14.4003 21.9288 15.3717 20.2574 15.6574 18.4145C15.8574 17.0574 15.6717 15.6574 15.1146 14.4002L13.5574 10.8859C12.5431 8.57164 13.4288 5.88592 15.6288 4.62878L22.3288 0.800219C23.1146 0.357362 23.9717 0.143066 24.8146 0.143066C26.3431 0.143066 27.8574 0.843072 28.8289 2.15736L31.1289 5.24308C31.9574 6.35736 33.0717 7.2145 34.3717 7.7145C35.2431 8.05736 36.1717 8.22879 37.1003 8.22879C38.0289 8.22879 38.9431 8.05736 39.8146 7.7145C41.1146 7.2145 42.2289 6.35736 43.0574 5.24308L45.3574 2.15736C46.3289 0.843072 47.8431 0.143066 49.3717 0.143066C50.2289 0.143066 51.086 0.357362 51.8574 0.800219L58.5574 4.62878C60.7574 5.88592 61.6431 8.57164 60.6288 10.8859L59.0717 14.4002C58.5146 15.6574 58.3289 17.0574 58.5289 18.4145C58.7289 19.6574 59.2289 20.8288 60.0003 21.8145C60.0003 21.8145 39.5003 22.7288 37.2431 22.7288C31.1289 22.7288 26.1717 27.6859 26.1717 33.7859C26.1717 39.8859 31.1289 44.8574 37.2431 44.8574C38.986 44.8574 59.8574 45.9431 59.8574 45.9431C59.1717 46.8859 58.7146 47.9859 58.5289 49.1574C58.3289 50.5145 58.5146 51.9145 59.0717 53.1716L60.6288 56.7002Z" fill="#3A55E0"/>
<path d="M64.5576 25.3004C69.1433 25.3004 72.8719 29.1147 72.8719 33.7861C72.8719 38.4575 69.1433 42.2718 64.5576 42.2718H36.1576C31.5719 42.2718 27.8433 38.4575 27.8433 33.7861C27.8433 29.1147 31.5719 25.3004 36.1576 25.3004H64.5576ZM64.5576 21.0146H36.1576C29.2005 21.0146 23.5576 26.7432 23.5576 33.7861C23.5576 40.8289 29.2148 46.5575 36.1576 46.5575H64.5576C71.5005 46.5575 77.1576 40.8289 77.1576 33.7861C77.1576 26.7432 71.5005 21.0146 64.5576 21.0146Z" fill="#012E71"/>
<path d="M36.6006 39.9146C39.9774 39.9146 42.7149 37.1772 42.7149 33.8003C42.7149 30.4235 39.9774 27.686 36.6006 27.686C33.2238 27.686 30.4863 30.4235 30.4863 33.8003C30.4863 37.1772 33.2238 39.9146 36.6006 39.9146Z" fill="#3A55E0"/>
</svg>
