<svg width="66" height="67" viewBox="0 0 66 67" fill="none" xmlns="http://www.w3.org/2000/svg">
<path d="M55.528 66.4571H10.4424V59.4067L19.0469 55.8462V50.9717H23.2857V58.672L14.7517 62.2184H51.2328L42.6848 58.672V50.9717H46.9235V55.8462L55.528 59.4067V66.4571Z" fill="#012E71"/>
<path d="M63.9209 2.79165C62.6352 1.52004 61.081 0.870117 59.2866 0.870117H6.71256C4.90405 0.870117 3.36399 1.52004 2.07825 2.79165C0.778377 4.09152 0.142578 5.63159 0.142578 7.4401V46.8742C0.142578 48.6827 0.778377 50.2369 2.07825 51.5085C3.36399 52.7943 4.90405 53.4442 6.71256 53.4442H59.2866C61.0951 53.4442 62.6352 52.7943 63.9209 51.5085C65.2208 50.2369 65.8566 48.6827 65.8566 46.8742V7.4401C65.8708 5.63159 65.2208 4.09152 63.9209 2.79165ZM45.9064 28.5347C45.9064 29.4248 45.2141 30.1737 44.324 30.2726L42.9535 30.428C42.4448 30.4704 41.9786 30.6682 41.5971 30.979C41.0602 31.3888 40.7211 31.9822 40.6222 32.6463C40.5374 33.1125 40.6081 33.6212 40.8059 34.0733L41.3569 35.3308C41.7242 36.1503 41.3993 37.0969 40.6222 37.5632L38.2344 38.9196C37.9518 39.075 37.6551 39.1597 37.3584 39.1597C36.8074 39.1597 36.2704 38.9054 35.9313 38.4533L35.1119 37.3512C34.8152 36.9415 34.4054 36.6448 33.9533 36.4752C33.6425 36.3481 33.3034 36.2916 32.9784 36.2916C32.6534 36.2916 32.3143 36.3481 32.0035 36.4752C31.5514 36.6448 31.1557 36.9415 30.859 37.3512L30.0396 38.4533C29.7005 38.9054 29.1494 39.1597 28.5984 39.1597C28.3017 39.1597 28.005 39.075 27.7224 38.9196L25.3346 37.5632C24.5434 37.111 24.2325 36.1503 24.5999 35.3308L25.1509 34.0733C25.3487 33.6212 25.4194 33.1125 25.3487 32.6463C25.2357 31.9822 24.8966 31.3888 24.3738 30.979C23.9782 30.6682 23.512 30.4704 23.0175 30.428L21.6328 30.2726C20.7427 30.1596 20.0645 29.4248 20.0645 28.5347V25.8078C20.0645 24.9177 20.7427 24.1547 21.6328 24.07L23.0175 23.9145C23.4978 23.858 23.9782 23.6602 24.3738 23.3635C24.8966 22.9538 25.2357 22.3603 25.3487 21.6963C25.4052 21.2159 25.3487 20.7072 25.1509 20.2692L24.5999 19.0118C24.2325 18.1782 24.5575 17.2174 25.3346 16.7794L27.7224 15.4089C28.005 15.2534 28.3017 15.1687 28.5984 15.1687C29.1494 15.1687 29.7005 15.423 30.0396 15.8893L30.859 16.9913C31.1557 17.3869 31.5514 17.6978 32.0035 17.8673C32.3143 17.9945 32.6534 18.051 32.9784 18.051C33.3034 18.051 33.6425 17.9945 33.9533 17.8673C34.4054 17.6978 34.8152 17.3869 35.1119 16.9913L35.9313 15.8893C36.2704 15.423 36.8074 15.1687 37.3584 15.1687C37.6551 15.1687 37.9518 15.2534 38.2344 15.4089L40.6222 16.7794C41.4134 17.2174 41.7242 18.1782 41.3569 19.0118L40.8059 20.2692C40.6081 20.7072 40.5374 21.2159 40.6222 21.6963C40.7211 22.3603 41.0602 22.9538 41.5971 23.3635C41.9786 23.6602 42.4448 23.8439 42.9535 23.9145L44.324 24.07C45.2141 24.1689 45.9064 24.9177 45.9064 25.8078V28.5347Z" fill="#3A55E0"/>
<path d="M32.9927 30.9224C35.0684 30.9224 36.751 29.2397 36.751 27.1641C36.751 25.0884 35.0684 23.4058 32.9927 23.4058C30.917 23.4058 29.2344 25.0884 29.2344 27.1641C29.2344 29.2397 30.917 30.9224 32.9927 30.9224Z" fill="#3A55E0"/>
</svg>
