<svg width="250" height="142" viewBox="0 0 250 142" fill="none" xmlns="http://www.w3.org/2000/svg">
<g clip-path="url(#clip0_1_48)">
<path d="M235.93 0H14.0696C14.0696 0 0.375732 0.206301 0.375732 14.1574C4.1587 4.37102 9.92385 4.60311 18.3189 6.40824L124.994 69.9363L231.668 6.40824C240.063 4.59021 245.828 4.35812 249.611 14.1574C249.611 0.193407 235.918 0 235.918 0H235.93Z" fill="#FFC450"/>
<path d="M238.094 142H11.893C5.33762 142 0 136.688 0 130.163V15.0212C0 10.5342 2.34492 6.53709 6.28336 4.33224C10.2088 2.1274 14.8598 2.20476 18.7205 4.52565L124.994 68.6339L231.279 4.52565C235.14 2.19186 239.791 2.1274 243.717 4.33224C247.642 6.53709 250 10.5342 250 15.0212V130.163C250 136.688 244.662 142 238.107 142H238.094ZM12.3335 6.60156C10.9084 6.60156 9.49629 6.96259 8.1878 7.69754C5.49308 9.20612 3.88661 11.9396 3.88661 15.0212V130.163C3.88661 134.56 7.47526 138.132 11.893 138.132H238.094C242.512 138.132 246.1 134.56 246.1 130.163V15.0212C246.1 11.9525 244.494 9.20612 241.799 7.69754C239.105 6.18896 235.917 6.24053 233.275 7.83937L124.981 73.1725L16.6995 7.83937C15.3392 7.01417 13.8363 6.60156 12.3206 6.60156H12.3335Z" fill="#B38882"/>
<path d="M236.993 87.5879C231.292 87.5879 228.339 85.3186 225.722 83.32C223.299 81.4633 221.2 79.8516 216.834 79.8516C212.468 79.8516 210.369 81.4633 207.947 83.32C205.343 85.3186 202.389 87.5879 196.689 87.5879C190.988 87.5879 188.034 85.3186 185.43 83.32C183.008 81.4633 180.922 79.8516 176.543 79.8516V75.9834C182.243 75.9834 185.197 78.2527 187.801 80.2513C190.224 82.108 192.31 83.7197 196.689 83.7197C201.068 83.7197 203.153 82.108 205.576 80.2513C208.18 78.2527 211.134 75.9834 216.847 75.9834C222.56 75.9834 225.501 78.2527 228.118 80.2513C230.541 82.108 232.64 83.7197 237.006 83.7197V87.5879H236.993Z" fill="#B38882"/>
<path d="M236.993 102.803C231.292 102.803 228.339 100.533 225.722 98.5348C223.299 96.6781 221.2 95.0664 216.834 95.0664C212.468 95.0664 210.369 96.6781 207.947 98.5348C205.343 100.533 202.389 102.803 196.689 102.803C190.988 102.803 188.034 100.533 185.43 98.5348C183.008 96.6781 180.922 95.0664 176.543 95.0664V91.1982C182.243 91.1982 185.197 93.4676 187.801 95.4661C190.224 97.3228 192.31 98.9346 196.689 98.9346C201.068 98.9346 203.153 97.3228 205.576 95.4661C208.18 93.4676 211.134 91.1982 216.847 91.1982C222.56 91.1982 225.501 93.4676 228.118 95.4661C230.541 97.3228 232.64 98.9346 237.006 98.9346V102.803H236.993Z" fill="#B38882"/>
</g>
<defs>
<clipPath id="clip0_1_48">
<rect width="250" height="142" fill="white"/>
</clipPath>
</defs>
</svg>
