<svg width="371" height="480" viewBox="0 0 371 480" fill="none" xmlns="http://www.w3.org/2000/svg">
<path d="M221.543 472.66C221.543 472.66 161.393 504.752 113.288 424.535C75.4133 361.384 1 240 1 240C1 240 75.3881 118.616 113.262 55.4654C161.393 -24.7516 221.543 7.34024 221.543 7.34024M281.694 472.66C281.694 472.66 221.543 504.752 173.438 424.535C135.564 361.384 61.1757 240 61.1757 240C61.1757 240 135.564 118.616 173.438 55.4654C221.543 -24.7516 281.694 7.34024 281.694 7.34024M341.845 472.66C341.845 472.66 281.694 504.752 233.589 424.535C195.714 361.384 121.326 240 121.326 240C121.326 240 195.714 118.616 233.589 55.4654C281.694 -24.7516 341.845 7.34024 341.845 7.34024M371 478.987C349.354 478.483 319.77 467.971 293.714 424.535C255.84 361.384 181.452 240 181.452 240C181.452 240 255.84 118.616 293.714 55.4654C319.77 12.0292 349.354 1.51681 371 1.01262" stroke="#B38882" stroke-width="1.59" stroke-miterlimit="10"/>
</svg>
