<svg width="50" height="50" viewBox="0 0 50 50" fill="none" xmlns="http://www.w3.org/2000/svg">
<rect width="50" height="50" rx="25" fill="white"/>
<path fill-rule="evenodd" clip-rule="evenodd" d="M13.6285 34.7087H18.5852V19.8921H13.6285V34.7087ZM16.1393 12.7487C15.7863 12.716 15.4304 12.7568 15.0939 12.8683C14.7575 12.9799 14.4477 13.1599 14.1842 13.397C13.9207 13.6341 13.7092 13.9232 13.5629 14.2461C13.4166 14.569 13.3388 14.9187 13.3342 15.2731C13.3296 15.6276 13.3985 15.9791 13.5364 16.3056C13.6744 16.6322 13.8784 16.9266 14.1357 17.1704C14.393 17.4143 14.698 17.6022 15.0315 17.7224C15.365 17.8425 15.7198 17.8924 16.0735 17.8688H16.1068C16.461 17.9009 16.8179 17.8592 17.1551 17.7463C17.4923 17.6334 17.8024 17.4517 18.0657 17.2127C18.3291 16.9737 18.54 16.6827 18.685 16.358C18.8301 16.0333 18.9061 15.682 18.9083 15.3264C18.9106 14.9708 18.8391 14.6186 18.6982 14.2921C18.5573 13.9656 18.35 13.6719 18.0898 13.4296C17.8295 13.1873 17.5218 13.0017 17.186 12.8845C16.8503 12.7673 16.4938 12.7211 16.1393 12.7487ZM36.4559 26.2129C36.4559 21.6613 34.011 19.5463 30.751 19.5463C29.8541 19.5085 28.9639 19.7164 28.1765 20.1476C27.3892 20.5788 26.7346 21.2168 26.2834 21.9929V19.8954H21.3276C21.3926 21.2846 21.3276 34.7121 21.3276 34.7121H26.2834V26.4371C26.2656 26.03 26.3221 25.6231 26.4501 25.2362C26.6374 24.7109 26.9821 24.256 27.4372 23.9336C27.8923 23.6112 28.4357 23.437 28.9935 23.4346C30.7868 23.4346 31.5043 24.7937 31.5043 26.7846V34.7129H36.4601L36.4559 26.2129ZM26.251 22.0413C26.261 22.0238 26.2734 22.0071 26.2834 21.9896V22.0413H26.251Z" fill="#211E29"/>
</svg>
