<svg width="140" height="140" viewBox="0 0 140 140" fill="none" xmlns="http://www.w3.org/2000/svg">
<path d="M79.5415 100.04C79.3874 99.3926 79.5149 98.708 79.892 98.1656C80.2796 97.6074 80.8904 97.244 81.5648 97.1545C101.713 94.5846 116.631 77.4435 116.254 57.2797C115.866 36.2891 97.3003 18.5529 75.7178 18.5529H21.8836V32.4343C21.8836 33.735 20.8162 34.7988 19.4992 34.7988H4.77271V1.59082H75.5531C90.8213 1.59082 105.835 7.8206 116.748 18.674C127.523 29.401 133.434 43.4457 133.381 58.2223C133.28 86.3327 112.027 110.299 83.9493 113.959L82.9296 114.09L79.5468 100.035L79.5415 100.04Z" fill="#3A55E0"/>
<path d="M63.737 138.409C48.4688 138.409 33.4556 132.179 22.5422 121.326C11.7669 110.599 5.86143 96.5542 5.91454 81.7776C6.01544 53.6672 27.2687 29.7012 55.3461 26.0413L56.3658 25.9097L59.7487 39.9649C59.9027 40.6126 59.7752 41.2972 59.3982 41.8396C59.0105 42.3978 58.3998 42.7611 57.7253 42.8507C37.5767 45.4205 22.659 62.5616 23.0361 82.7255C23.4238 103.716 41.9898 121.452 63.5723 121.452H117.417V107.729C117.417 106.428 118.485 105.364 119.802 105.364H134.528V138.414H63.737V138.409Z" fill="#022E95"/>
<path d="M88.8405 66.1639C85.1974 68.6863 82.234 71.9882 80.131 75.7639C78.0173 79.5292 76.7693 83.7789 76.5357 88.1761C76.4985 88.8923 76.0205 89.5032 75.3408 89.698C75.2027 89.7349 75.0699 89.7612 74.9319 89.7665C74.3742 89.7823 73.8432 89.5137 73.5086 89.0345C70.9595 85.4219 67.635 82.4835 63.8273 80.3981C60.0195 78.3022 55.7444 77.0594 51.2994 76.833C50.5931 76.7961 49.9718 76.3221 49.7753 75.6481C49.7381 75.5112 49.7115 75.3795 49.7062 75.2426C49.6903 74.6897 49.9611 74.163 50.4338 73.8313C54.0769 71.3088 57.0509 68.007 59.1539 64.2312C61.2569 60.4554 62.5155 56.2162 62.7492 51.819C62.7864 51.1029 63.2537 50.492 63.9441 50.2971C64.0822 50.2603 64.2149 50.234 64.353 50.2287C64.9106 50.2129 65.4417 50.4815 65.7763 50.9501C68.3254 54.5627 71.6499 57.5117 75.4576 59.5971C79.2547 61.6824 83.5404 62.9358 87.9748 63.1622C88.6971 63.1991 89.3131 63.6625 89.5096 64.3471C89.7114 65.0317 89.4299 65.7531 88.8352 66.1639H88.8405Z" fill="#B38882"/>
</svg>
