<svg width="350" height="60" viewBox="0 0 350 60" fill="none" xmlns="http://www.w3.org/2000/svg">
<path d="M32.9529 42.4453C32.8891 42.177 32.9419 41.8933 33.0981 41.6686C33.2587 41.4374 33.5118 41.2868 33.7912 41.2497C42.1385 40.1851 48.3186 33.0838 48.1624 24.7302C48.0018 16.0341 40.3102 8.68623 31.3688 8.68623H9.06611V14.4371C9.06611 14.976 8.62389 15.4167 8.07825 15.4167H1.97729V1.65909H31.3006C37.626 1.65909 43.8458 4.24 48.367 8.73641C52.8311 13.1805 55.2798 18.999 55.2578 25.1207C55.216 36.7664 46.4111 46.6952 34.779 48.2114L34.3566 48.266L32.9551 42.4431L32.9529 42.4453Z" fill="#3A55E0"/>
<path d="M26.4053 58.3409C20.08 58.3409 13.8602 55.76 9.33895 51.2636C4.87488 46.8195 2.42834 41.001 2.45034 34.8793C2.49214 23.2336 11.2971 13.3048 22.9291 11.7886L23.3516 11.734L24.7531 17.5569C24.8169 17.8252 24.7641 18.1088 24.6078 18.3335C24.4472 18.5648 24.1942 18.7153 23.9148 18.7524C15.5675 19.8171 9.38735 26.9184 9.54356 35.272C9.70417 43.9681 17.3958 51.3159 26.3371 51.3159H48.6443V45.6305C48.6443 45.0917 49.0865 44.651 49.6321 44.651H55.7331V58.3431H26.4053V58.3409Z" fill="#022E95"/>
<path d="M36.8053 28.4107C35.296 29.4557 34.0684 30.8236 33.1971 32.3879C32.3215 33.9477 31.8044 35.7083 31.7076 37.53C31.6922 37.8267 31.4942 38.0798 31.2126 38.1605C31.1554 38.1758 31.1004 38.1867 31.0432 38.1889C30.8122 38.1954 30.5921 38.0842 30.4535 37.8856C29.3975 36.389 28.0202 35.1717 26.4427 34.3077C24.8652 33.4394 23.0941 32.9245 21.2526 32.8307C20.96 32.8155 20.7026 32.6191 20.6212 32.3399C20.6058 32.2831 20.5948 32.2286 20.5926 32.1719C20.586 31.9428 20.6982 31.7246 20.894 31.5872C22.4033 30.5422 23.6353 29.1743 24.5066 27.61C25.3778 26.0457 25.8993 24.2895 25.9961 22.4678C26.0115 22.1711 26.2051 21.918 26.4911 21.8373C26.5483 21.822 26.6033 21.8111 26.6605 21.809C26.8915 21.8024 27.1115 21.9137 27.2502 22.1078C28.3062 23.6045 29.6835 24.8262 31.261 25.6901C32.8341 26.5541 34.6096 27.0733 36.4467 27.1671C36.7459 27.1824 37.0011 27.3744 37.0825 27.658C37.1661 27.9416 37.0495 28.2405 36.8031 28.4107H36.8053Z" fill="#B38882"/>
<path d="M80.7275 12.5214H97.0568C108.216 12.5214 115.148 19.2447 115.148 30.071C115.148 40.8974 108.216 47.6206 97.0568 47.6206H80.7275V12.5214ZM97.0545 41.6647C104.968 41.6647 108.195 38.3064 108.195 30.071C108.195 21.8356 104.968 18.4774 97.0545 18.4774H87.3121V41.6647H97.0545Z" fill="#05246C"/>
<path d="M138.407 12.5214H129.853L113.892 47.6184H121.252L132.33 23.1446L134.078 18.9694L135.831 23.1582L146.902 47.6184H154.368L138.407 12.5214Z" fill="#05246C"/>
<path d="M183.192 47.6184L167.385 27.5343L163.588 22.3005L163.756 27.1032V47.6184H157.118V12.5214H163.908L179.614 32.6597L183.556 38.2162L183.344 33.1946L183.342 12.5214H189.982V47.6184H183.192Z" fill="#05246C"/>
<path d="M211.603 48.1284C200.929 48.1284 194.809 42.6036 194.809 32.9689V12.5214H201.396V32.6123C201.396 39.234 204.257 41.8159 211.603 41.8159C218.949 41.8159 221.81 39.2363 221.81 32.6123V12.5214H228.45V32.9689C228.45 42.6013 222.309 48.1284 211.603 48.1284Z" fill="#05246C"/>
<path d="M269.452 47.6184V26.205L269.585 23.0002L268.12 26.4036L258.373 45.5849H250.993L241.26 26.4329L239.781 23.0002L239.915 26.1847V47.6184H233.275V12.5214H241.738L251.885 32.5378L254.783 39.0174L257.573 32.5672L267.628 12.5214H276.092V47.6184H269.452Z" fill="#05246C"/>
<path d="M286.087 18.3713C286.087 14.828 288.523 12.5214 292.221 12.5214C295.503 12.5214 297.784 14.1486 297.784 16.7779V16.9133H295.728V16.7779C295.728 15.1507 294.571 14.2683 292.168 14.2683C289.385 14.2683 288.056 15.5389 288.056 18.3713C288.056 21.2037 289.369 22.4585 292.081 22.4585C294.792 22.4585 295.933 21.7115 295.933 19.7954V19.6419H291.648V18.2517H297.782V24.0519H296.089V21.5919H295.967C295.484 23.253 294.015 24.2189 291.752 24.2189C288.348 24.2189 286.085 21.9124 286.085 18.369L286.087 18.3713Z" fill="#05246C"/>
<path d="M300.05 24.0519V12.6907H306.062C308.688 12.6907 310.312 13.9117 310.312 16.0309C310.312 17.9131 309.051 19.0664 306.873 19.1838V19.3034C307.773 19.5404 308.187 20.0482 308.601 20.7613L310.535 24.0519H308.391L306.542 20.9148C306.025 20.0166 305.489 19.6442 304.038 19.6442H301.913V24.0519H300.047H300.05ZM301.915 18.2359H306.045C307.6 18.2359 308.378 17.71 308.378 16.2859C308.378 14.8618 307.6 14.336 306.045 14.336H301.915V18.2359Z" fill="#05246C"/>
<path d="M312.007 18.3713C312.007 14.828 314.408 12.5214 318.037 12.5214C321.666 12.5214 324.086 14.828 324.086 18.3713C324.086 21.9146 321.701 24.2212 318.037 24.2212C314.373 24.2212 312.007 21.9146 312.007 18.3713ZM322.115 18.3713C322.115 15.5389 320.783 14.2683 318.037 14.2683C315.291 14.2683 313.976 15.5389 313.976 18.3713C313.976 21.2037 315.289 22.4585 318.037 22.4585C320.785 22.4585 322.115 21.2037 322.115 18.3713Z" fill="#05246C"/>
<path d="M326.089 19.3372V12.6907H327.938V19.2176C327.938 21.5061 328.975 22.4563 331.514 22.4563C334.054 22.4563 335.091 21.5061 335.091 19.2176V12.6907H336.958V19.3372C336.958 22.4224 334.987 24.2212 331.514 24.2212C328.042 24.2212 326.089 22.4247 326.089 19.3372Z" fill="#05246C"/>
<path d="M339.306 24.0519V12.6907H344.973C347.547 12.6907 349.311 14.1328 349.311 16.6583C349.311 19.1838 347.549 20.6259 344.973 20.6259H341.172V24.0519H339.306ZM341.172 14.336V18.9829H344.801C346.547 18.9829 347.446 18.3374 347.446 16.6606C347.446 14.9837 346.547 14.3382 344.801 14.3382H341.172V14.336Z" fill="#05246C"/>
<path d="M80.7275 12.5214H97.0568C108.216 12.5214 115.148 19.2447 115.148 30.071C115.148 40.8974 108.216 47.6206 97.0568 47.6206H80.7275V12.5214ZM97.0545 41.6647C104.968 41.6647 108.195 38.3064 108.195 30.071C108.195 21.8356 104.968 18.4774 97.0545 18.4774H87.3121V41.6647H97.0545Z" fill="white"/>
<path d="M138.407 12.5214H129.853L113.892 47.6184H121.252L132.33 23.1446L134.078 18.9694L135.831 23.1582L146.902 47.6184H154.368L138.407 12.5214Z" fill="white"/>
<path d="M183.192 47.6184L167.385 27.5343L163.588 22.3005L163.756 27.1032V47.6184H157.118V12.5214H163.908L179.614 32.6597L183.556 38.2162L183.344 33.1946L183.342 12.5214H189.982V47.6184H183.192Z" fill="white"/>
<path d="M211.603 48.1284C200.929 48.1284 194.809 42.6036 194.809 32.9689V12.5214H201.396V32.6123C201.396 39.234 204.257 41.8159 211.603 41.8159C218.949 41.8159 221.81 39.2363 221.81 32.6123V12.5214H228.45V32.9689C228.45 42.6013 222.309 48.1284 211.603 48.1284Z" fill="white"/>
<path d="M269.452 47.6184V26.205L269.585 23.0002L268.12 26.4036L258.373 45.5849H250.993L241.26 26.4329L239.781 23.0002L239.915 26.1847V47.6184H233.275V12.5214H241.738L251.885 32.5378L254.783 39.0174L257.573 32.5672L267.628 12.5214H276.092V47.6184H269.452Z" fill="white"/>
<path d="M286.087 18.3713C286.087 14.828 288.523 12.5214 292.221 12.5214C295.503 12.5214 297.784 14.1486 297.784 16.7779V16.9133H295.728V16.7779C295.728 15.1507 294.571 14.2683 292.168 14.2683C289.385 14.2683 288.056 15.5389 288.056 18.3713C288.056 21.2037 289.369 22.4585 292.081 22.4585C294.792 22.4585 295.933 21.7115 295.933 19.7954V19.6419H291.648V18.2517H297.782V24.0519H296.089V21.5919H295.967C295.484 23.253 294.015 24.2189 291.752 24.2189C288.348 24.2189 286.085 21.9124 286.085 18.369L286.087 18.3713Z" fill="white"/>
<path d="M300.05 24.0519V12.6907H306.062C308.688 12.6907 310.312 13.9117 310.312 16.0309C310.312 17.9131 309.051 19.0664 306.873 19.1838V19.3034C307.773 19.5404 308.187 20.0482 308.601 20.7613L310.535 24.0519H308.391L306.542 20.9148C306.025 20.0166 305.489 19.6442 304.038 19.6442H301.913V24.0519H300.047H300.05ZM301.915 18.2359H306.045C307.6 18.2359 308.378 17.71 308.378 16.2859C308.378 14.8618 307.6 14.336 306.045 14.336H301.915V18.2359Z" fill="white"/>
<path d="M312.007 18.3713C312.007 14.828 314.408 12.5214 318.037 12.5214C321.666 12.5214 324.086 14.828 324.086 18.3713C324.086 21.9146 321.701 24.2212 318.037 24.2212C314.373 24.2212 312.007 21.9146 312.007 18.3713ZM322.115 18.3713C322.115 15.5389 320.783 14.2683 318.037 14.2683C315.291 14.2683 313.976 15.5389 313.976 18.3713C313.976 21.2037 315.289 22.4585 318.037 22.4585C320.785 22.4585 322.115 21.2037 322.115 18.3713Z" fill="white"/>
<path d="M326.089 19.3372V12.6907H327.938V19.2176C327.938 21.5061 328.975 22.4563 331.514 22.4563C334.054 22.4563 335.091 21.5061 335.091 19.2176V12.6907H336.958V19.3372C336.958 22.4224 334.987 24.2212 331.514 24.2212C328.042 24.2212 326.089 22.4247 326.089 19.3372Z" fill="white"/>
<path d="M339.306 24.0519V12.6907H344.973C347.547 12.6907 349.311 14.1328 349.311 16.6583C349.311 19.1838 347.549 20.6259 344.973 20.6259H341.172V24.0519H339.306ZM341.172 14.336V18.9829H344.801C346.547 18.9829 347.446 18.3374 347.446 16.6606C347.446 14.9837 346.547 14.3382 344.801 14.3382H341.172V14.336Z" fill="white"/>
<path d="M138.795 41.0464C137.866 41.6829 137.112 42.5156 136.576 43.4681C136.035 44.4182 135.718 45.4902 135.66 46.6006C135.651 46.7812 135.529 46.9346 135.357 46.9843C135.322 46.9933 135.288 47.0001 135.253 47.0001C135.111 47.0046 134.975 46.9346 134.89 46.815C134.241 45.9032 133.393 45.163 132.422 44.6371C131.452 44.1068 130.361 43.7953 129.228 43.7389C129.046 43.7299 128.889 43.6102 128.839 43.441C128.83 43.4071 128.823 43.3733 128.823 43.3394C128.818 43.1995 128.889 43.0663 129.009 42.9828C129.938 42.3464 130.695 41.5136 131.233 40.5612C131.769 39.6088 132.091 38.539 132.148 37.4286C132.158 37.2481 132.277 37.0946 132.452 37.0449C132.486 37.0359 132.521 37.0291 132.555 37.0291C132.698 37.0246 132.834 37.0946 132.919 37.2119C133.567 38.1237 134.416 38.8662 135.387 39.3944C136.355 39.9202 137.447 40.2362 138.579 40.2926C138.763 40.3016 138.919 40.419 138.97 40.5905C139.02 40.7643 138.949 40.9448 138.8 41.0487L138.795 41.0464Z" fill="#BF9892"/>
</svg>
