<svg width="66" height="70" viewBox="0 0 66 70" fill="none" xmlns="http://www.w3.org/2000/svg">
<path d="M23.219 43.7043H2.4627C1.18132 43.7043 0.142578 44.7507 0.142578 46.0414V66.9487C0.142578 68.2394 1.18132 69.2857 2.4627 69.2857H23.219C24.5003 69.2857 25.5391 68.2394 25.5391 66.9487V46.0414C25.5391 44.7507 24.5003 43.7043 23.219 43.7043Z" fill="#3A55E0"/>
<path d="M63.5364 43.7043H42.7801C41.4987 43.7043 40.46 44.7507 40.46 46.0414V66.9487C40.46 68.2394 41.4987 69.2857 42.7801 69.2857H63.5364C64.8178 69.2857 65.8565 68.2394 65.8565 66.9487V46.0414C65.8565 44.7507 64.8178 43.7043 63.5364 43.7043Z" fill="#3A55E0"/>
<path d="M43.3088 0.714355H22.5526C21.2712 0.714355 20.2324 1.76068 20.2324 3.05138V23.9587C20.2324 25.2494 21.2712 26.2957 22.5526 26.2957H43.3088C44.5902 26.2957 45.629 25.2494 45.629 23.9587V3.05138C45.629 1.76068 44.5902 0.714355 43.3088 0.714355Z" fill="#3A55E0"/>
<path d="M55.2425 43.7043H51.0746V37.5889H14.9248V43.7043H10.7568V36.3434C10.7568 34.7201 12.0628 33.3906 13.6744 33.3906H52.311C53.9226 33.3906 55.2286 34.7061 55.2286 36.3434V43.7043H55.2425Z" fill="#012E71"/>
<path d="M35.083 26.2957H30.915V35.4898H35.083V26.2957Z" fill="#012E71"/>
</svg>
