<svg width="100" height="100" viewBox="0 0 100 100" fill="none" xmlns="http://www.w3.org/2000/svg">
<path d="M63.0945 84.2856H27.5871C24.9766 84.2856 22.8574 82.1859 22.8574 79.5996V23.2572C22.8574 20.6709 24.9766 18.5713 27.5871 18.5713H72.4135C75.0239 18.5713 77.1431 20.6709 77.1431 23.2572V70.3668L63.0945 84.2856ZM28.5695 22.9652C27.8678 22.9652 27.2923 23.5353 27.2923 24.2306V78.6263C27.2923 79.3215 27.8678 79.8916 28.5695 79.8916H60.849C61.1157 79.8916 61.3542 79.7943 61.5367 79.6136L72.4135 68.8373C72.5959 68.6565 72.6942 68.4062 72.6942 68.156V24.2306C72.6942 23.5353 72.1188 22.9652 71.417 22.9652H28.5695Z" fill="#012E71"/>
<path d="M67.9959 27.1431H32.0044C31.6891 27.1431 31.4287 27.4018 31.4287 27.715V75.1562C31.4287 75.4694 31.6754 75.7145 31.9907 75.7145H62.3902C62.6369 75.7145 62.8836 75.6056 63.0618 75.4422L68.3112 69.9409C68.4619 69.7639 68.5716 69.5324 68.5716 69.3009V27.715C68.5716 27.4018 68.3112 27.1431 67.9959 27.1431ZM45.0249 40.6646C44.8193 41.3591 44.1889 41.8357 43.5036 41.8357H36.308L37.6649 37.7779L36.308 33.72H43.5036C44.1889 33.72 44.8056 34.1966 45.0249 34.8911L45.9569 37.7779L45.0249 40.6646Z" fill="#3A55E0"/>
<path d="M59.2305 82.0571V71.6476C59.2305 68.7391 61.5823 66.3872 64.4909 66.3872H74.9838" fill="#012E71"/>
<path d="M61.3175 82.0569H57.1426V71.6474C57.1426 67.5977 60.4408 64.2856 64.4904 64.2856H74.9834V68.4606H64.4904C62.737 68.4606 61.3175 69.8939 61.3175 71.6474V82.0569Z" fill="#012E71"/>
</svg>
