<svg width="79" height="67" viewBox="0 0 79 67" fill="none" xmlns="http://www.w3.org/2000/svg">
<path d="M42.7425 60.8857C25.9854 60.8857 12.3711 47.2571 12.3711 30.5143C12.3711 13.7714 25.9997 0.142822 42.7425 0.142822C59.4854 0.142822 73.114 13.7714 73.114 30.5143C73.114 47.2571 59.4854 60.8857 42.7425 60.8857ZM42.7425 4.41426C28.3568 4.41426 16.6568 16.1143 16.6568 30.5C16.6568 44.8857 28.3568 56.5857 42.7425 56.5857C57.1282 56.5857 68.8283 44.8857 68.8283 30.5C68.8283 16.1143 57.1282 4.41426 42.7425 4.41426Z" fill="#012E71"/>
<path d="M64.2209 48.9432L61.1904 51.9736L75.7972 66.5804L78.8277 63.55L64.2209 48.9432Z" fill="#012E71"/>
<path d="M7.42855 21.6287H1.27141C0.569215 21.6287 0 22.1979 0 22.9001V29.0572C0 29.7594 0.569215 30.3287 1.27141 30.3287H7.42855C8.13074 30.3287 8.7 29.7594 8.7 29.0572V22.9001C8.7 22.1979 8.13074 21.6287 7.42855 21.6287Z" fill="#3A55E0"/>
<path d="M7.42855 33.457H1.27141C0.569215 33.457 0 34.0263 0 34.7285V40.8856C0 41.5878 0.569215 42.157 1.27141 42.157H7.42855C8.13074 42.157 8.7 41.5878 8.7 40.8856V34.7285C8.7 34.0263 8.13074 33.457 7.42855 33.457Z" fill="#3A55E0"/>
<path d="M35.2284 18H25.9713C25.2612 18 24.6855 18.5756 24.6855 19.2857V28.5429C24.6855 29.2529 25.2612 29.8286 25.9713 29.8286H35.2284C35.9384 29.8286 36.5141 29.2529 36.5141 28.5429V19.2857C36.5141 18.5756 35.9384 18 35.2284 18Z" fill="#3A55E0"/>
<path d="M35.2284 33.0571H25.9713C25.2612 33.0571 24.6855 33.6328 24.6855 34.3428V43.6C24.6855 44.3101 25.2612 44.8857 25.9713 44.8857H35.2284C35.9384 44.8857 36.5141 44.3101 36.5141 43.6V34.3428C36.5141 33.6328 35.9384 33.0571 35.2284 33.0571Z" fill="#012E71"/>
<path d="M50.286 18H41.0289C40.3188 18 39.7432 18.5756 39.7432 19.2857V28.5429C39.7432 29.2529 40.3188 29.8286 41.0289 29.8286H50.286C50.9961 29.8286 51.5717 29.2529 51.5717 28.5429V19.2857C51.5717 18.5756 50.9961 18 50.286 18Z" fill="#3A55E0"/>
<path d="M50.286 33.0571H41.0289C40.3188 33.0571 39.7432 33.6328 39.7432 34.3428V43.6C39.7432 44.3101 40.3188 44.8857 41.0289 44.8857H50.286C50.9961 44.8857 51.5717 44.3101 51.5717 43.6V34.3428C51.5717 33.6328 50.9961 33.0571 50.286 33.0571Z" fill="#3A55E0"/>
</svg>
