<svg width="50" height="57" viewBox="0 0 50 57" fill="none" xmlns="http://www.w3.org/2000/svg">
<path d="M24.9923 0.428711L0.713867 14.3537V15.1618C0.873689 21.2801 2.007 27.0521 4.09922 32.3623C4.70945 33.8775 5.4359 35.4359 6.26407 36.9944C7.16489 38.6971 8.19646 40.3854 9.34427 42.016C10.5211 43.661 11.7852 45.2339 13.1219 46.6625C17.2773 51.1935 21.4908 54.0939 24.2804 55.739L24.9778 56.143L25.7188 55.739C28.5375 54.0506 32.78 51.1214 36.8918 46.6481C38.3157 45.0896 39.5798 43.5312 40.6404 42.0016C41.7737 40.4287 42.8053 38.7404 43.7351 36.9799C44.5052 35.5514 45.2316 33.9929 45.9 32.3479C47.9922 27.0521 49.1255 21.2801 49.2563 15.1762L49.2853 14.3537L24.9923 0.428711ZM34.4219 28.2353L19.7618 35.5369C19.5584 35.6524 19.3404 35.6957 19.1225 35.6957C18.861 35.6957 18.5994 35.6235 18.367 35.4792C17.9456 35.2195 17.6986 34.7577 17.6986 34.2671V19.6639C17.6986 19.1589 17.9456 18.7115 18.367 18.4518C18.7883 18.1921 19.3259 18.1488 19.7618 18.3941L34.4219 25.6957C34.9158 25.9266 35.2209 26.4316 35.2209 26.9655C35.2209 27.4994 34.9013 28.0189 34.4219 28.2498V28.2353Z" fill="#3A55E0"/>
</svg>
