<svg width="100" height="100" viewBox="0 0 100 100" fill="none" xmlns="http://www.w3.org/2000/svg">
<path d="M85.7143 45.6184V53.2985C85.7143 55.8204 83.7942 57.9267 81.2724 58.2133L77.4036 58.6431C76.0138 58.8008 74.6955 59.3309 73.6065 60.1906C72.1306 61.3513 71.1563 63.0277 70.8697 64.8761C70.6691 66.2374 70.8554 67.6416 71.4142 68.9025L72.976 72.4417C73.9934 74.7486 73.105 77.4424 70.8984 78.7033L64.1782 82.5434C63.3902 82.9876 62.5305 83.2025 61.6851 83.2025C60.1519 83.2025 58.6331 82.5004 57.6587 81.1822L55.3518 78.0872C54.5207 76.9696 53.4031 76.1098 52.0992 75.6083C51.2251 75.2644 50.2937 75.0925 49.3624 75.0925C48.431 75.0925 47.514 75.2644 46.6399 75.6083C45.336 76.1098 44.2183 76.9696 43.3873 78.0872L41.0804 81.1965C40.106 82.5004 38.5872 83.2025 37.054 83.2025C36.1943 83.2025 35.3345 82.9876 34.5608 82.5434L27.8406 78.7033C25.634 77.4424 24.7457 74.7486 25.763 72.4417L27.3248 68.9025C27.8836 67.6416 28.0699 66.2374 27.8693 64.8761C27.683 63.7012 27.2245 62.5979 26.5368 61.6522L41.3239 54.2442C42.9574 56.981 45.9521 58.8151 49.3624 58.8151C54.535 58.8151 58.719 54.6311 58.719 49.4585C58.719 44.2858 54.535 40.1018 49.3624 40.1018C45.8662 40.1018 42.8285 42.0362 41.2523 44.9019L26.3935 37.451C27.1672 36.4623 27.6687 35.2874 27.8693 34.0408C28.0699 32.6795 27.8836 31.2753 27.3248 30.0144L25.763 26.4895C24.7457 24.1683 25.634 21.4745 27.8406 20.2136L34.5608 16.3735C35.3345 15.9293 36.1943 15.7144 37.054 15.7144C38.5872 15.7144 40.106 16.4165 41.0804 17.7347L43.3873 20.8297C44.2183 21.9473 45.336 22.8071 46.6399 23.3086C47.514 23.6525 48.4453 23.8244 49.3624 23.8244C50.2794 23.8244 51.2251 23.6525 52.0992 23.3086C53.4031 22.8071 54.5207 21.9473 55.3518 20.8297L57.6587 17.7347C58.6331 16.4165 60.1519 15.7144 61.6851 15.7144C62.5305 15.7144 63.3902 15.9293 64.1782 16.3735L70.8984 20.2136C73.105 21.4745 73.9934 24.1683 72.976 26.4895L71.4142 30.0144C70.8554 31.2753 70.6691 32.6795 70.8697 34.0408C71.1563 35.8892 72.1306 37.5656 73.6065 38.7262C74.6955 39.586 76.0138 40.1161 77.4036 40.2737L81.2724 40.7036C83.7942 40.9902 85.7143 43.0965 85.7143 45.6184Z" fill="#3A55E0"/>
<path d="M19.3012 38.1673C19.4015 38.1673 19.5161 38.1959 19.6164 38.2389L40.9662 48.9425C41.482 49.2004 41.482 49.9455 40.9662 50.2177L19.6164 60.9212C19.5161 60.9786 19.4015 60.9929 19.3012 60.9929C18.9286 60.9929 18.5847 60.692 18.5847 60.2764V38.8694C18.5847 38.4538 18.9286 38.1529 19.3012 38.1529M19.3012 33.8687C16.5357 33.8687 14.2861 36.1183 14.2861 38.8837V60.2908C14.2861 63.0562 16.5357 65.3058 19.3012 65.3058C20.0749 65.3058 20.8487 65.1195 21.5365 64.7757L42.8862 54.0721C44.5913 53.2124 45.6517 51.5073 45.6517 49.6016C45.6517 47.6959 44.5913 45.9764 42.8862 45.131L21.5365 34.4275C20.8343 34.0836 20.0606 33.8973 19.2868 33.8973L19.3012 33.8687Z" fill="#012E71"/>
</svg>
