<svg width="100" height="100" viewBox="0 0 100 100" fill="none" xmlns="http://www.w3.org/2000/svg">
<g clip-path="url(#clip0_1_83)">
<path d="M48.8808 86.909C44.7319 83.0003 40.1026 79.6266 35.1129 76.8752C26.0399 71.8419 15.7768 68.894 5.42629 68.3699C2.99153 68.228 0.906146 66.5902 0.229216 64.2974C0.120034 63.8934 0.0108517 63.4021 0.0108517 62.8344C-0.0437394 60.9783 0.873391 59.1768 2.46745 58.0413L4.35631 60.7162C3.65754 61.2075 3.25356 61.9827 3.2754 62.7907C3.2754 62.9763 3.30816 63.151 3.37366 63.4021C3.64662 64.3302 4.55283 65.0289 5.60098 65.0944C16.4319 65.6513 27.1863 68.7302 36.6961 74.0037C41.915 76.8861 46.7736 80.4236 51.1191 84.518L48.8699 86.909H48.8808Z" fill="#253294"/>
<path d="M53.401 95.6545C57.0431 95.6545 59.9956 92.702 59.9956 89.0599C59.9956 85.4178 57.0431 82.4653 53.401 82.4653C49.7589 82.4653 46.8064 85.4178 46.8064 89.0599C46.8064 92.702 49.7589 95.6545 53.401 95.6545Z" fill="#3A55E0"/>
<path d="M62.6815 100C60.88 100 59.144 99.0938 58.0413 97.5434L60.7162 95.6545C61.2075 96.3533 62.0046 96.7245 62.7907 96.7245C62.9763 96.7245 63.151 96.6918 63.4021 96.6262C64.3411 96.3533 65.0289 95.4471 65.0944 94.3989C65.6513 83.5571 68.7302 72.8027 74.0037 63.3038C76.8861 58.0849 80.4236 53.2263 84.518 48.8809L86.909 51.1191C83.0003 55.268 79.6266 59.8973 76.8752 64.887C71.8419 73.96 68.894 84.2231 68.3699 94.5736C68.228 97.0084 66.5902 99.0938 64.2974 99.7707C63.8607 99.8908 63.3038 100 62.6815 100Z" fill="#253294"/>
<path d="M89.0599 53.1826C92.702 53.1826 95.6545 50.2301 95.6545 46.588C95.6545 42.9459 92.702 39.9934 89.0599 39.9934C85.4178 39.9934 82.4653 42.9459 82.4653 46.588C82.4653 50.2301 85.4178 53.1826 89.0599 53.1826Z" fill="#3A55E0"/>
<path d="M97.5434 41.9479L95.6545 39.2729C96.3533 38.7816 96.7463 38.0064 96.7245 37.1984C96.7245 37.0128 96.6918 36.8381 96.6262 36.587C96.3533 35.648 95.4471 34.9602 94.3989 34.8947C83.5681 34.3379 72.8027 31.2589 63.3038 25.9854C58.0849 23.103 53.2263 19.5655 48.8809 15.4712L51.1191 13.0801C55.268 16.9888 59.9083 20.3625 64.887 23.1139C73.96 28.1472 84.2231 31.0951 94.5736 31.6192C97.0084 31.7612 99.0938 33.3989 99.7707 35.6917C99.8799 36.0957 99.9891 36.587 99.9891 37.1438C100.044 38.9999 99.1265 40.8124 97.5325 41.9369L97.5434 41.9479Z" fill="#253294"/>
<path d="M46.588 17.5347C50.2301 17.5347 53.1826 14.5822 53.1826 10.9401C53.1826 7.29797 50.2301 4.34546 46.588 4.34546C42.9459 4.34546 39.9934 7.29797 39.9934 10.9401C39.9934 14.5822 42.9459 17.5347 46.588 17.5347Z" fill="#3A55E0"/>
<path d="M15.4712 51.1191L13.0801 48.8809C16.9888 44.732 20.3625 40.1026 23.1139 35.113C28.1472 26.04 31.0951 15.7768 31.6192 5.42636C31.7612 2.99159 33.3989 0.906213 35.6917 0.229283C36.1284 0.109182 36.6853 0 37.3076 0C39.1091 0 40.856 0.917131 41.9479 2.4566L39.2729 4.34545C38.7816 3.64669 38.0064 3.2973 37.2094 3.27547C37.0237 3.27547 36.8491 3.30822 36.5979 3.37373C35.6699 3.64669 34.9711 4.5529 34.9056 5.60105C34.3488 16.4319 31.2698 27.1864 25.9963 36.6961C23.1139 41.9151 19.5764 46.7737 15.4821 51.1191H15.4712Z" fill="#253294"/>
<path d="M10.9401 59.9956C14.5822 59.9956 17.5347 57.0431 17.5347 53.401C17.5347 49.7589 14.5822 46.8064 10.9401 46.8064C7.29797 46.8064 4.34546 49.7589 4.34546 53.401C4.34546 57.0431 7.29797 59.9956 10.9401 59.9956Z" fill="#3A55E0"/>
<path d="M68.49 46.2715C64.9853 48.7281 62.1247 51.9271 60.1048 55.5957C58.0631 59.2533 56.8621 63.3804 56.6437 67.6603C56.611 68.3591 56.1524 68.9487 55.4973 69.1452C55.3663 69.1779 55.2353 69.2107 55.1043 69.2107C54.5693 69.2216 54.0561 68.9596 53.7286 68.501C51.272 64.9963 48.0729 62.1357 44.4044 60.1049C40.7359 58.0632 36.6197 56.8622 32.3289 56.6438C31.6519 56.6111 31.0514 56.1525 30.8549 55.4974C30.8221 55.3664 30.7894 55.2354 30.7894 55.1043C30.7785 54.5694 31.0405 54.0562 31.4882 53.7396C34.9929 51.283 37.8644 48.0839 39.8843 44.4154C41.9151 40.7469 43.127 36.6307 43.3453 32.3508C43.3781 31.652 43.8257 31.0624 44.4918 30.8659C44.6228 30.8331 44.7538 30.8004 44.8848 30.8004C45.4198 30.7895 45.933 31.0515 46.2496 31.4991C48.7062 35.0039 51.9052 37.8754 55.5738 39.8953C59.2314 41.926 63.3584 43.138 67.6384 43.3563C68.3372 43.3891 68.9267 43.8367 69.1233 44.5027C69.3198 45.1688 69.0468 45.8675 68.4791 46.2715H68.49Z" fill="#BF9892"/>
</g>
<defs>
<clipPath id="clip0_1_83">
<rect width="100" height="100" fill="white"/>
</clipPath>
</defs>
</svg>
