<svg width="50" height="50" viewBox="0 0 50 50" fill="none" xmlns="http://www.w3.org/2000/svg">
<rect width="50" height="50" rx="25" fill="white"/>
<path fill-rule="evenodd" clip-rule="evenodd" d="M38.2677 30.5352C38.14 31.4932 37.7725 32.4036 37.1993 33.1818C36.4845 33.8967 35.5177 34.3024 34.5068 34.3118C30.7468 34.5818 25.101 34.5902 25.101 34.5902C25.101 34.5902 18.1152 34.5268 15.9652 34.3218C14.8733 34.3076 13.8224 33.9033 13.0027 33.1818C12.4297 32.4035 12.0626 31.4932 11.9352 30.5352C11.7677 29.1025 11.6779 27.6617 11.666 26.2193V24.196C11.6779 22.7536 11.7677 21.3129 11.9352 19.8802C12.0625 18.9219 12.4297 18.0112 13.0027 17.2327C13.7179 16.5185 14.6845 16.1131 15.6951 16.1035C19.4551 15.8335 25.0952 15.8335 25.0952 15.8335H25.1068C25.1068 15.8335 30.7468 15.8335 34.5068 16.1035C35.5175 16.1131 36.4841 16.5185 37.1993 17.2327C37.7725 18.0112 38.14 18.9218 38.2677 19.8802C38.4348 21.3129 38.5243 22.7536 38.536 24.196V26.2193C38.5243 27.6617 38.4347 29.1024 38.2677 30.5352ZM22.326 21.1785V28.6702L28.691 25.3968L29.5852 24.9368L29.5635 24.9476L29.5852 24.9368L22.326 21.1785Z" fill="#211E29"/>
</svg>
