<svg width="76" height="67" viewBox="0 0 76 67" fill="none" xmlns="http://www.w3.org/2000/svg">
<path d="M75.7017 30.8143L73.7732 43.9285C73.416 46.3571 71.1589 48.0428 68.7303 47.6857L63.9303 46.9857L64.5303 42.8857C65.1303 38.7857 65.5161 34.6285 65.6732 30.4714C65.6732 15.3857 53.3875 3.11425 38.3018 3.11425V0.142822C53.2303 0.142822 65.6732 10.9857 68.1589 25.2L71.9446 25.7714C74.3732 26.1285 76.0446 28.3857 75.7017 30.8143Z" fill="#012E71"/>
<path d="M0.901754 30.8143L2.83033 43.9285C3.18748 46.3571 5.44462 48.0428 7.87319 47.6857L12.6732 46.9857L12.0732 42.8857C11.4732 38.7857 11.0875 34.6285 10.9303 30.4714C10.9303 15.3857 23.2161 3.11425 38.3018 3.11425V0.142822C23.3732 0.142822 10.9303 10.9857 8.44463 25.2L4.6589 25.7714C2.23033 26.1285 0.558897 28.3857 0.901754 30.8143Z" fill="#012E71"/>
<path d="M62.6589 30.6571V31.8142C62.6589 31.8142 62.1446 45.4571 58.316 52.8999C54.816 59.7285 41.9874 65.5285 41.9874 65.5285C41.9874 65.5285 41.116 66.0428 38.3017 66.0428C35.4874 66.0428 34.616 65.5285 34.616 65.5285C34.616 65.5285 32.4732 64.5571 29.6874 62.9285H30.5589C34.2303 62.9285 37.216 59.9428 37.216 56.2714C37.216 52.5999 34.2303 49.6142 30.5589 49.6142H22.1446C20.3732 49.6142 18.7874 50.2999 17.5874 51.4142C14.3874 43.7714 13.9446 31.8142 13.9446 31.8142V30.6571C13.9446 17.1856 24.8446 6.28564 38.3017 6.28564C51.7589 6.28564 62.6589 17.1856 62.6589 30.6571Z" fill="#3A55E0"/>
<path d="M31.3018 57.3571H20.1018C14.3732 57.3571 9.71606 52.7 9.71606 46.9714H12.6875C12.6875 51.0571 16.016 54.3857 20.1018 54.3857H31.3018V57.3571Z" fill="#012E71"/>
<path d="M30.5589 51.5857H22.1446C19.5567 51.5857 17.4589 53.6836 17.4589 56.2714C17.4589 58.8593 19.5567 60.9571 22.1446 60.9571H30.5589C33.1467 60.9571 35.2446 58.8593 35.2446 56.2714C35.2446 53.6836 33.1467 51.5857 30.5589 51.5857Z" fill="#012E71"/>
</svg>
