<svg width="86" height="46" viewBox="0 0 86 46" fill="none" xmlns="http://www.w3.org/2000/svg">
<path d="M58.4744 44.9592V40.9894L58.3983 41.0275C57.5105 41.4587 56.5339 41.6997 55.532 41.7504C54.5046 41.8265 53.4774 41.5221 52.653 40.9007C52.0695 40.4441 51.6256 39.8226 51.3973 39.125C51.1436 38.3514 51.1182 37.527 51.3212 36.7406C51.5114 35.9416 51.9553 35.2187 52.6022 34.7113C53.1729 34.2294 53.8705 33.9377 54.6061 33.8489C55.9125 33.6967 57.2315 33.9504 58.3983 34.5591L58.4871 34.6099V30.6274L58.3095 30.5767C57.1427 30.2089 55.9252 30.044 54.6949 30.1074C53.5788 30.1328 52.488 30.3864 51.4734 30.843C50.446 31.3123 49.5456 32.0098 48.8353 32.885C47.7446 34.2547 47.1485 35.9416 47.1231 37.6919C47.0977 39.4421 47.6431 41.1416 48.6958 42.5495C49.7485 43.8939 51.2324 44.8578 52.8939 45.2509C54.6441 45.6822 56.4832 45.6188 58.2081 45.0607L58.4998 44.9846L58.4744 44.9592ZM19.2204 44.9592V40.9894L19.1443 41.0275C18.2565 41.4587 17.2799 41.6997 16.2779 41.7504C15.2506 41.8265 14.2233 41.5348 13.3989 40.9007C12.8154 40.4441 12.3715 39.8226 12.1433 39.125C11.8896 38.3514 11.8642 37.527 12.0545 36.7406C12.2447 35.9416 12.6886 35.2187 13.3355 34.7113C13.9062 34.2294 14.6038 33.9377 15.3394 33.8489C16.6457 33.6967 17.9648 33.9504 19.1316 34.5591L19.2204 34.6099V30.6274L19.0428 30.5767C17.876 30.2089 16.6584 30.044 15.4282 30.1074C14.312 30.1328 13.2213 30.3864 12.2067 30.843C11.1794 31.3123 10.2788 32.0098 9.5686 32.885C8.49054 34.2547 7.88174 35.9416 7.85638 37.6919C7.83101 39.4421 8.3764 41.1416 9.41641 42.5495C10.4691 43.9065 11.953 44.8578 13.6145 45.2509C15.3648 45.6822 17.2038 45.6188 18.9287 45.0607L19.2204 44.9846V44.9592ZM33.2351 41.6617V45.0734L33.4761 45.1114C34.2625 45.2509 35.0489 45.3524 35.8479 45.4158C36.5455 45.4792 37.243 45.4919 37.9406 45.4539C38.6128 45.4031 39.2723 45.2763 39.9064 45.0861C40.6547 44.8705 41.3524 44.5027 41.9485 43.9953C42.4811 43.5387 42.887 42.9553 43.1407 42.2831C43.5719 41.1797 43.5592 39.9494 43.1153 38.8587C42.887 38.288 42.5191 37.7806 42.0499 37.3748C41.5933 36.9689 41.0606 36.6645 40.4899 36.4616L37.9152 35.5104C37.6108 35.3709 37.3571 35.1426 37.2176 34.8382C37.1669 34.7113 37.1415 34.5845 37.1415 34.445C37.1415 34.3055 37.1796 34.1787 37.243 34.0518C37.3825 33.8362 37.5728 33.6586 37.7884 33.5445C38.0801 33.405 38.3845 33.3162 38.7016 33.2782C39.247 33.2021 39.7923 33.2021 40.3504 33.2908C40.9972 33.3669 41.6314 33.4811 42.2528 33.6333L42.3923 33.6586V30.5006L42.1514 30.4498C41.5172 30.2976 40.8703 30.1835 40.2108 30.1074C39.361 29.9932 38.5113 29.9932 37.6616 30.1074C36.5962 30.2089 35.5689 30.6147 34.7318 31.2869C34.1611 31.7308 33.7298 32.3269 33.4761 33.0118C33.1083 34.0518 33.0956 35.1806 33.4761 36.2206C33.6664 36.7406 33.9708 37.1972 34.3766 37.5777C34.7191 37.9075 35.1122 38.1865 35.5435 38.4148C36.1015 38.7192 36.6976 38.9475 37.3191 39.1124C37.522 39.1758 37.7249 39.2392 37.9279 39.3026L38.2323 39.4168L38.321 39.4548C38.6254 39.5563 38.9045 39.7338 39.1328 39.9494C39.2977 40.1016 39.4118 40.2792 39.4879 40.4948C39.5387 40.6851 39.5387 40.8753 39.4879 41.0655C39.3865 41.3699 39.1835 41.6236 38.8918 41.7758C38.5874 41.928 38.2576 42.0295 37.9152 42.0802C37.4079 42.1563 36.9006 42.1817 36.3933 42.1563C35.7211 42.1056 35.0615 42.0168 34.402 41.8899C34.0596 41.8138 33.7171 41.7377 33.3747 41.649L33.2605 41.6236L33.2351 41.6617ZM24.3951 45.2129H28.1493V30.3357H24.3951V45.2129ZM67.8218 34.7367C68.215 34.4069 68.6843 34.166 69.1662 34.0265C69.6609 33.8743 70.1809 33.8362 70.6882 33.8869C71.1955 33.9377 71.6902 34.0899 72.1468 34.3308C72.6034 34.5718 72.9966 34.9016 73.3263 35.3074C73.6561 35.7006 73.897 36.1572 74.0366 36.6518C74.1888 37.1465 74.2395 37.6665 74.1761 38.1738C74.1253 38.6811 73.9732 39.1758 73.7322 39.6324C73.4912 40.089 73.1614 40.4821 72.7556 40.8119L72.6922 40.8626C71.8804 41.4841 70.8531 41.7631 69.8385 41.6363C68.8238 41.5095 67.8979 40.9894 67.2511 40.1904C66.6169 39.3914 66.3126 38.3641 66.414 37.3494C66.5155 36.3348 67.0228 35.3962 67.8091 34.7367H67.8218ZM62.3808 37.7806C62.3935 38.9475 62.6726 40.089 63.1926 41.129C63.7126 42.169 64.4481 43.0821 65.3613 43.8051C66.2745 44.528 67.3272 45.0353 68.4687 45.289C69.5975 45.5427 70.777 45.5553 71.9058 45.3017C73.4278 45.01 74.8229 44.2744 75.9136 43.1709C77.0044 42.0675 77.7273 40.6597 78.0064 39.1377C78.2727 37.6158 78.0824 36.0431 77.4356 34.6352C76.7888 33.2274 75.7361 32.0479 74.4043 31.2489C73.2248 30.5132 71.8678 30.1074 70.4853 30.0693C69.1029 30.0313 67.7204 30.3611 66.5028 31.0206C65.2853 31.6801 64.2579 32.6567 63.535 33.8489C62.812 35.0411 62.4189 36.3855 62.3808 37.7806ZM71.9946 18.3756C72.0327 18.8448 72.2355 19.2761 72.5907 19.6058C72.9331 19.9229 73.3897 20.1005 73.859 20.1005C74.3282 20.1005 74.7848 19.9229 75.1273 19.6058C75.4697 19.2888 75.6853 18.8448 75.7234 18.3756V9.12963C75.698 8.66036 75.4824 8.21645 75.14 7.88669C74.7975 7.55693 74.3409 7.37937 73.8717 7.37937C73.4024 7.37937 72.9458 7.55693 72.6034 7.88669C72.2609 8.21645 72.0453 8.66036 72.0199 9.12963V18.3756H71.9946ZM51.5622 18.3756C51.5875 18.8448 51.8032 19.2888 52.1456 19.6185C52.488 19.9483 52.9446 20.1258 53.4139 20.1258C53.8832 20.1258 54.3398 19.9483 54.6822 19.6185C55.0247 19.2888 55.2403 18.8448 55.2657 18.3756V9.12963C55.2403 8.64767 55.0373 8.20377 54.6949 7.87401C54.3525 7.54425 53.8832 7.354 53.4139 7.354C52.9446 7.354 52.4753 7.54425 52.1329 7.87401C51.7905 8.20377 51.5875 8.66036 51.5622 9.12963V18.3756ZM30.9522 18.3756C30.9776 18.8575 31.1805 19.3014 31.523 19.6312C31.8654 19.961 32.3347 20.1512 32.804 20.1512C33.2732 20.1512 33.7425 19.961 34.085 19.6312C34.4274 19.3014 34.6303 18.8448 34.6557 18.3756V9.12963C34.6303 8.64767 34.4274 8.20377 34.085 7.87401C33.7425 7.54425 33.2732 7.354 32.804 7.354C32.3347 7.354 31.8654 7.54425 31.523 7.87401C31.1805 8.20377 30.9776 8.66036 30.9522 9.12963V18.3756ZM10.431 18.3756C10.4691 18.8448 10.6847 19.2761 11.0271 19.5931C11.3696 19.9102 11.8262 20.0878 12.2828 20.0878C12.7394 20.0878 13.196 19.9102 13.5384 19.5931C13.8808 19.2761 14.0965 18.8448 14.1345 18.3756V9.12963C14.1091 8.64767 13.9062 8.20377 13.5637 7.87401C13.2213 7.54425 12.7521 7.354 12.2828 7.354C11.8135 7.354 11.3442 7.54425 11.0018 7.87401C10.6593 8.20377 10.4564 8.66036 10.431 9.12963V18.3756Z" fill="#012E71"/>
<path d="M82.1536 18.3756C82.1789 18.8576 82.3819 19.3015 82.7243 19.6313C83.0668 19.961 83.536 20.1513 84.0053 20.1513C84.4746 20.1513 84.9439 19.961 85.2863 19.6313C85.6288 19.3015 85.8317 18.8449 85.8571 18.3756V14.2537C85.8317 13.7717 85.6288 13.3278 85.2863 12.998C84.9439 12.6683 84.4746 12.478 84.0053 12.478C83.536 12.478 83.0668 12.6683 82.7243 12.998C82.3819 13.3278 82.1789 13.7844 82.1536 14.2537V18.3756Z" fill="#3A55E0"/>
<path d="M61.696 22.1044C61.734 22.5737 61.937 23.0049 62.2921 23.322C62.6346 23.6391 63.0912 23.8166 63.5604 23.8166C64.0297 23.8166 64.4863 23.6391 64.8287 23.322C65.1712 23.0049 65.3868 22.561 65.4248 22.1044V2.10326C65.3994 1.62131 65.1966 1.1774 64.8541 0.847643C64.5117 0.517884 64.0424 0.327637 63.5731 0.327637C63.1039 0.327637 62.6346 0.517884 62.2921 0.847643C61.9497 1.1774 61.7467 1.63399 61.7214 2.10326V22.1044H61.696Z" fill="#3A55E0"/>
<path d="M41.2 18.3756C41.2507 18.8322 41.4663 19.2635 41.8087 19.5805C42.1512 19.8976 42.595 20.0625 43.0643 20.0625C43.5336 20.0625 43.9776 19.8849 44.32 19.5805C44.6624 19.2635 44.878 18.8449 44.9288 18.3756V14.2537C44.9034 13.7717 44.7005 13.3278 44.358 12.998C44.0156 12.6683 43.5463 12.478 43.077 12.478C42.6077 12.478 42.1385 12.6683 41.796 12.998C41.4536 13.3278 41.2507 13.7844 41.2253 14.2537V18.3756H41.2Z" fill="#3A55E0"/>
<path d="M20.6407 22.1044C20.6661 22.5864 20.869 23.0303 21.2115 23.3601C21.5539 23.6898 22.0232 23.8801 22.4925 23.8801C22.9617 23.8801 23.431 23.6898 23.7735 23.3601C24.1159 23.0303 24.3188 22.5737 24.3442 22.1044V2.10326C24.3188 1.62131 24.1159 1.1774 23.7735 0.847643C23.431 0.517884 22.9617 0.327637 22.4925 0.327637C22.0232 0.327637 21.5539 0.517884 21.2115 0.847643C20.869 1.1774 20.6661 1.63399 20.6407 2.10326V22.1044Z" fill="#3A55E0"/>
<path d="M0.157776 18.3756C0.195825 18.8449 0.398717 19.2761 0.753842 19.5932C1.09628 19.9103 1.55287 20.0879 2.02215 20.0879C2.49142 20.0879 2.94801 19.9103 3.29045 19.5932C3.63289 19.2761 3.84851 18.8322 3.88656 18.3756V14.2537C3.86119 13.7717 3.65828 13.3278 3.31584 12.998C2.9734 12.6683 2.50412 12.478 2.03484 12.478C1.56557 12.478 1.09628 12.6683 0.753842 12.998C0.4114 13.3278 0.208494 13.7844 0.183128 14.2537V18.3756H0.157776Z" fill="#3A55E0"/>
</svg>
