<svg width="79" height="66" viewBox="0 0 79 66" fill="none" xmlns="http://www.w3.org/2000/svg">
<path d="M77.5077 46.3714L76.5791 44.9428C75.8363 43.8 75.4505 42.4857 75.4505 41.1285V15.8C75.4505 7.15711 68.422 0.142822 59.7934 0.142822H31.0077C22.3648 0.142822 15.3505 7.15711 15.3505 15.8V17.0571H19.4648V15.8C19.4648 9.44282 24.6505 4.25711 31.0077 4.25711H59.7934C66.1505 4.25711 71.3362 9.44282 71.3362 15.8V41.1285C71.3362 43.2857 71.9505 45.3714 73.122 47.1857L73.722 48.0857H63.122V52.2H74.3505C75.7505 52.2 77.0219 51.4285 77.6791 50.2143C78.3362 48.9857 78.2648 47.5142 77.5077 46.3571V46.3714Z" fill="#012E71"/>
<path d="M45.5077 17.0714H16.722C9.20767 17.0714 3.12196 23.1571 3.12196 30.6714V56.0143C3.12196 57.7571 2.60767 59.4714 1.65053 60.9428L0.707669 62.3714C-0.0351883 63.5286 0.793386 65.0428 2.15053 65.0428H45.5077C53.022 65.0428 59.1219 58.9428 59.1219 51.4286V30.6857C59.1219 23.1714 53.022 17.0857 45.5077 17.0857V17.0714ZM17.3934 47.8428C14.6505 47.8428 12.4362 45.6286 12.4362 42.8857C12.4362 40.1428 14.6505 37.9428 17.3934 37.9428C20.1362 37.9428 22.3362 40.1571 22.3362 42.8857C22.3362 45.6143 20.122 47.8428 17.3934 47.8428ZM31.122 47.8428C28.3791 47.8428 26.1648 45.6286 26.1648 42.8857C26.1648 40.1428 28.3791 37.9428 31.122 37.9428C33.8648 37.9428 36.0791 40.1571 36.0791 42.8857C36.0791 45.6143 33.8648 47.8428 31.122 47.8428ZM44.8505 47.8428C42.1077 47.8428 39.8934 45.6286 39.8934 42.8857C39.8934 40.1428 42.1077 37.9428 44.8505 37.9428C47.5934 37.9428 49.7934 40.1571 49.7934 42.8857C49.7934 45.6143 47.5791 47.8428 44.8505 47.8428Z" fill="#3A55E0"/>
</svg>
