<svg width="66" height="76" viewBox="0 0 66 76" fill="none" xmlns="http://www.w3.org/2000/svg">
<path d="M33.0159 5.20112L61.4925 21.6232C61.74 30.271 60.255 37.5939 57.8238 43.7377C57.1249 45.5429 56.3242 47.2463 55.4798 48.8477C54.4462 50.8277 53.296 52.6621 52.1022 54.3654C50.7774 56.2435 49.4089 57.9323 48.0113 59.4609C40.6592 67.5409 33.0159 70.9331 33.0159 70.9331C33.0159 70.9331 25.4018 67.5409 18.0352 59.4609C16.6375 57.9323 15.2399 56.2435 13.9297 54.3654C12.7359 52.6766 11.6148 50.8423 10.5521 48.8477C9.70767 47.2463 8.90695 45.5429 8.20813 43.7377C5.79141 37.6085 4.29188 30.271 4.53937 21.6232L33.0159 5.20112ZM33.0159 0.149292L30.8322 1.40133L2.35559 17.8234L0.244593 19.0463L0.1718 21.4776C-0.0756956 29.9798 1.26369 38.0016 4.13173 45.31C4.87422 47.2026 5.73318 49.0807 6.67948 50.8714C7.80049 52.9824 9.03797 54.9915 10.3337 56.855C11.6876 58.7621 13.1872 60.6256 14.7886 62.3872C22.6648 71.035 30.8613 74.7329 31.2107 74.893L32.9868 75.6792L34.763 74.893C35.1124 74.7329 43.3234 71.035 51.2142 62.3726C52.7719 60.6693 54.2715 58.8058 55.6545 56.855C57.023 54.9187 58.246 52.9096 59.3233 50.8568C60.3278 48.9642 61.1722 47.1298 61.871 45.2954C64.7391 38.0598 66.0639 30.038 65.831 21.4922L65.7582 19.0609L63.6472 17.838L35.1706 1.41588L32.9868 0.163843L33.0159 0.149292Z" fill="#012E71"/>
<path d="M33.0162 9.99084L8.68884 24.0399L8.71796 24.8552C8.86355 31.028 9.99911 36.866 12.0956 42.209C12.707 43.7522 13.4349 45.3245 14.2648 46.8823C15.1674 48.6002 16.2156 50.3035 17.3512 51.9487C18.5304 53.6083 19.8116 55.1952 21.1364 56.6365C25.3002 61.2079 29.5222 64.1342 32.332 65.7793L33.0308 66.2015L33.7733 65.7793C36.6122 64.0905 40.8487 61.1351 44.9688 56.622C46.3956 55.0351 47.6622 53.4773 48.7249 51.9341C49.8459 50.3472 50.8942 48.6439 51.8259 46.8677C52.5975 45.4264 53.3254 43.8541 53.9951 42.1944C56.0916 36.866 57.2271 31.028 57.3727 24.8697L57.4018 24.0399L33.0599 9.99084H33.0162Z" fill="#3A55E0"/>
</svg>
