<svg width="74" height="68" viewBox="0 0 74 68" fill="none" xmlns="http://www.w3.org/2000/svg">
<path d="M36.8 50.5999C44.1769 50.5999 50.1572 44.6197 50.1572 37.2428C50.1572 29.8658 44.1769 23.8856 36.8 23.8856C29.4231 23.8856 23.4429 29.8658 23.4429 37.2428C23.4429 44.6197 29.4231 50.5999 36.8 50.5999Z" fill="#3A55E0"/>
<path d="M72.3714 14.6571L65.2714 7.15709L62.3286 9.9428L66.8 14.6714H39.1428C38.3714 14.5857 37.5857 14.5428 36.8 14.5428C29.1428 14.5428 22.3857 18.3571 18.2714 24.1714V7.2428L23 11.7142L25.7857 8.77138L18.2857 1.67137L17.2714 0.714233H15.2429L14.2286 1.67137L6.72856 8.77138L9.51429 11.7142L14.2429 7.2428V34.8999C14.1571 35.6714 14.1143 36.4571 14.1143 37.2571C14.1143 44.9142 17.9286 51.6714 23.7428 55.7857H6.81429L11.2857 51.0571L8.34285 48.2714L1.24285 55.7714L0.285706 56.7857V58.8142L1.24285 59.8285L8.34285 67.3285L11.2857 64.5428L6.81429 59.8142H34.4714C35.2428 59.9 36.0286 59.9428 36.8286 59.9428C49.3429 59.9428 59.5428 49.7571 59.5428 37.2285C59.5428 29.5714 55.7286 22.8142 49.9143 18.7H66.8428L62.3714 23.4285L65.3143 26.2142L72.4143 18.7142L73.3714 17.6999V15.6714L72.4143 14.6571H72.3714ZM55.2143 37.2428C55.2143 47.3999 46.9429 55.6714 36.7857 55.6714C26.6286 55.6714 18.3571 47.3999 18.3571 37.2428C18.3571 27.0857 26.6286 18.8142 36.7857 18.8142C46.9429 18.8142 55.2143 27.0857 55.2143 37.2428Z" fill="#012E71"/>
</svg>
