<svg width="72" height="58" viewBox="0 0 72 58" fill="none" xmlns="http://www.w3.org/2000/svg">
<path d="M48.5079 23.6337V27.2112H55.6494V23.6337H48.5079ZM48.5079 23.6337V27.2112H55.6494V23.6337H48.5079ZM69.6236 2.51901C68.2205 1.13007 66.5369 0.428589 64.5726 0.428589H7.42714C5.46289 0.428589 3.79329 1.13007 2.39025 2.51901C0.987222 3.92198 0.285706 5.60554 0.285706 7.56969V50.4303C0.285706 52.3945 0.987222 54.0781 2.39025 55.467C3.79329 56.87 5.46289 57.5714 7.42714 57.5714H64.5726C66.5509 57.5714 68.2205 56.87 69.6236 55.467C71.0266 54.0781 71.7141 52.3945 71.7141 50.4303V7.56969C71.7281 5.60554 71.0266 3.92198 69.6236 2.51901ZM28.8655 23.6337H16.3645V26.3133H25.2877C26.2979 26.3274 27.1537 26.6641 27.8272 27.3515C28.5147 28.025 28.8655 28.8808 28.8655 29.8909V36.1341C28.8655 37.1442 28.5287 38.0001 27.8412 38.6875C27.1538 39.375 26.2979 39.7117 25.2877 39.7117H11.0049V34.3523H23.5059V31.6727H14.5686C13.5724 31.6727 12.7166 31.336 12.0291 30.6485C11.3416 29.9611 11.0049 29.1193 11.0049 28.1091V21.8519C11.0049 20.8418 11.3556 20 12.0291 19.3125C12.7166 18.6251 13.5584 18.2884 14.5686 18.2884H28.8655V23.6337ZM39.5706 39.7117H32.4292V18.2884H39.5706V39.7117ZM61.009 28.993C61.009 30.0031 60.6722 30.8589 59.9847 31.5464C59.2973 32.2198 58.4414 32.5706 57.4312 32.5706H48.5079V39.7117H43.1483V18.2884H57.4312C58.4414 18.2884 59.2972 18.6251 59.9707 19.3125C60.6582 20 61.009 20.8418 61.009 21.8519V28.993ZM48.5079 27.2112H55.6494V23.6337H48.5079V27.2112ZM48.5079 23.6337V27.2112H55.6494V23.6337H48.5079ZM48.5079 23.6337V27.2112H55.6494V23.6337H48.5079Z" fill="#012E71"/>
</svg>
