<svg width="80" height="61" viewBox="0 0 80 61" fill="none" xmlns="http://www.w3.org/2000/svg">
<path d="M73.5097 9.18595L72.8383 9.11452H72.6668C73.4097 10.4145 74.0668 11.7717 74.6526 13.1574L74.824 13.5288C75.8954 16.0574 75.9669 18.9002 75.0526 21.5002C74.1668 24.0431 72.3097 26.1431 69.8811 27.3288C68.5954 27.9288 67.2097 28.2574 65.7954 28.2574C64.824 28.2431 63.8668 28.086 62.9526 27.8145C61.9526 31.7574 60.3954 36.5859 58.9668 39.5145C57.5383 42.4288 55.8668 44.3431 54.3811 44.3431C53.7383 44.3431 52.7097 44.3431 51.2097 41.4288C50.2668 39.4574 49.5097 37.4002 48.9383 35.2859C48.4668 33.5431 48.024 31.8002 47.624 30.0431C47.4525 29.386 47.3097 28.7145 47.1669 28.0574V28.0288C45.8097 22.1002 44.2811 15.886 41.6526 10.9002C40.7383 9.17166 39.6383 7.52881 38.3811 6.02881C36.7954 4.12881 34.7954 2.61452 32.5526 1.57166C30.3383 0.543092 27.9383 0.0145206 25.4954 0.0430921C22.0383 0.0430921 16.324 1.17166 11.4526 7.45738C13.0097 8.20024 14.3383 9.32881 15.324 10.7288C16.3383 12.1717 16.9811 13.8431 17.2097 15.586C17.4669 17.4574 18.0668 21.1002 18.7811 24.5431V24.5717C18.8525 24.9431 18.924 25.3145 19.024 25.7145C19.4383 24.586 19.8526 23.5717 20.2954 22.5288L20.6668 21.6288L21.0954 20.6574C21.8811 18.8288 23.5097 15.6717 25.5097 15.6717C26.224 15.6717 27.224 15.6717 28.6811 18.486C29.6669 20.5002 30.4526 22.6145 31.0383 24.786C31.4954 26.4717 31.9525 28.2717 32.3525 30.0717C32.4811 30.5717 32.5811 31.0574 32.6954 31.5574V31.6574C34.1383 37.9145 35.624 43.9431 38.1954 48.9288C38.724 49.986 39.324 51.0002 40.0097 51.9574C40.5097 52.6717 41.0383 53.3574 41.6097 54.0288C45.8383 58.8574 50.7097 60.0288 54.4097 60.0288C59.5668 60.0288 66.8668 57.7002 72.224 46.686C74.9668 41.0288 77.2668 32.6717 78.124 28.4288C78.9811 24.2002 79.624 20.3717 79.9097 18.0574C80.1954 16.0145 79.6811 13.9288 78.4668 12.2574C77.8811 11.4431 77.1383 10.7574 76.2954 10.2288C75.4526 9.71452 74.524 9.37166 73.5383 9.24309L73.5097 9.18595Z" fill="#012E71"/>
<path d="M72.5526 14.586C74.2526 18.5146 72.6526 23.386 68.8526 24.9289C61.6668 27.886 58.8526 20.6146 58.8526 20.6146C58.0668 18.786 56.424 15.6289 54.4097 15.6289C53.724 15.6289 52.7382 15.6289 51.2811 18.4431C50.524 19.9146 49.8383 22.386 49.224 24.5717L48.924 25.6431C47.6811 20.3574 46.1954 14.1431 43.8097 9.60028C43.1526 8.32885 42.4097 7.12885 41.5668 6.00028C43.1525 4.11457 45.1383 2.586 47.3668 1.54314C49.5668 0.514568 51.9669 -0.0140037 54.3954 0.000282053C57.8811 0.000282053 63.6097 1.12885 68.4811 7.41457C69.0383 8.10028 69.5383 8.82885 69.9668 9.586C70.8954 11.0574 71.6954 12.6003 72.3811 14.186L72.524 14.5574L72.5526 14.586Z" fill="#3A55E0"/>
<path d="M0.066866 18.0003C-0.504562 13.686 2.66684 9.486 6.50969 9.186C12.4811 8.65743 14.3668 13.8003 14.6811 15.486L14.7526 15.9431C14.9811 17.4146 15.724 22.0717 16.3526 25.086C16.6097 26.4146 17.1669 28.4574 17.524 29.8003V29.8717L17.624 30.1717C17.9954 31.5003 18.3954 32.8289 18.824 34.1431C19.4383 35.9717 20.1526 37.7574 20.9526 39.5003C22.524 42.686 24.0526 44.3289 25.5097 44.3289C26.1811 44.3289 27.2097 44.3289 28.7097 41.4003C29.6526 39.4289 30.4097 37.3717 30.9811 35.2574C32.224 40.586 33.6811 45.6717 35.9668 50.1003C36.6525 51.4574 37.4383 52.7431 38.3526 53.9574C36.7668 55.8431 34.7811 57.3717 32.5526 58.4146C30.3526 59.4431 27.9525 59.9717 25.524 59.9431C20.3668 59.9431 13.1097 57.6146 7.73829 46.6003C6.324 43.5574 5.12399 40.4146 4.15256 37.2003C3.23827 34.286 2.46685 31.3431 1.83828 28.3574C1.58114 27.1289 1.35257 25.886 1.12399 24.6431C0.695423 22.4289 0.338281 20.2146 0.0525664 17.9717L0.066866 18.0003Z" fill="#3A55E0"/>
</svg>
