<svg width="60" height="47" viewBox="0 0 60 47" fill="none" xmlns="http://www.w3.org/2000/svg">
<path d="M27.5091 2.92C28.0991 2.92 28.6891 2.95 29.2791 3.02C37.0791 3.89 42.9591 10.65 42.9591 18.74C42.9591 19.33 43.4391 19.8 44.0191 19.8H44.2291C50.8391 19.8 56.2191 25.18 56.2191 31.79C56.2191 38.4 50.8391 43.78 44.2291 43.78H17.3991C9.64907 43.78 3.15906 37.64 2.91906 30.09C2.71906 23.93 6.52906 18.42 12.1891 16.35C13.1791 8.79001 19.6991 2.91 27.4991 2.91M27.5091 0.00999451C18.8991 0.00999451 11.4891 6.04 9.60906 14.3C3.58906 17.21 -0.210933 23.4 0.00906709 30.2C0.299067 39.3 8.09906 46.7 17.4091 46.7H44.2391C52.4591 46.7 59.1491 40.01 59.1491 31.79C59.1491 24.1 53.2891 17.75 45.8091 16.96C45.0091 8.19001 38.3191 1.09 29.6191 0.119995C28.9191 0.0399951 28.2191 0 27.5291 0L27.5091 0.00999451Z" fill="#012E71"/>
<path d="M50.989 25.05C49.249 23.32 46.859 22.25 44.229 22.25H44.029C42.089 22.25 40.509 20.68 40.509 18.74C40.509 15.4 39.289 12.27 37.249 9.86999C35.199 7.46999 32.319 5.81999 29.009 5.44999C21.199 4.57999 14.599 10.62 14.509 18.23C9.15904 19.42 5.18904 24.27 5.36904 30.03C5.56904 36.4 11.029 41.34 17.409 41.34H44.229C49.499 41.34 53.789 37.07 53.789 31.79C53.789 29.16 52.719 26.77 50.989 25.04V25.05ZM43.569 35.5L40.099 32.03C39.939 31.87 39.939 31.6 40.099 31.44L41.609 29.93C41.769 29.77 42.039 29.77 42.189 29.93L43.919 31.66L46.379 29.2C46.549 29.04 46.799 29.04 46.959 29.2L48.469 30.71C48.629 30.87 48.629 31.13 48.469 31.29L44.259 35.49C44.079 35.69 43.759 35.69 43.569 35.49V35.5Z" fill="#3A55E0"/>
<path d="M42.019 24.06C39.119 24.77 36.7791 27.15 36.1491 30.06C34.9891 35.32 38.9891 39.95 44.0391 39.95C48.4791 39.95 52.079 36.35 52.079 31.88C52.079 26.76 47.329 22.77 42.019 24.06ZM48.469 31.3L44.2591 35.5C44.0791 35.7 43.7591 35.7 43.5691 35.5L40.0991 32.03C39.9391 31.87 39.9391 31.6 40.0991 31.44L41.609 29.93C41.769 29.77 42.039 29.77 42.189 29.93L43.919 31.66L46.379 29.2C46.549 29.04 46.7991 29.04 46.9591 29.2L48.469 30.71C48.629 30.87 48.629 31.13 48.469 31.29V31.3Z" fill="#012E71"/>
</svg>
