<svg width="66" height="67" viewBox="0 0 66 67" fill="none" xmlns="http://www.w3.org/2000/svg">
<path d="M35.0853 22.7287V1.08581C35.0853 0.571525 34.671 0.157227 34.1567 0.157227H31.7424C31.2281 0.157227 30.8138 0.571525 30.8138 1.08581V22.7287H35.0996H35.0853Z" fill="#012E71"/>
<path d="M65.0426 36.2144C65.0426 32.2144 64.3568 28.2287 62.7569 24.5573C57.7426 12.9859 46.2283 4.90015 32.8283 4.90015C19.4283 4.90015 7.89974 12.9859 2.88545 24.543C1.29974 28.2144 0.599731 32.2001 0.599731 36.2001C2.97116 36.143 5.34258 35.5573 7.51401 34.443L9.37114 33.4859C11.6711 32.3144 14.1854 31.7144 16.6997 31.7144C19.214 31.7144 21.7283 32.3001 24.0283 33.4859L25.8854 34.443C28.0569 35.5573 30.4283 36.143 32.7997 36.2001C35.1711 36.143 37.5426 35.5573 39.714 34.443L41.5712 33.4859C43.8712 32.3144 46.3854 31.7144 48.8997 31.7144C51.414 31.7144 53.9283 32.3001 56.2283 33.4859L58.0854 34.443C60.2569 35.5573 62.6283 36.143 64.9997 36.2001L65.0426 36.2144Z" fill="#3A55E0"/>
<path d="M22.4997 53.2288H14.3854C13.6754 53.2288 13.0997 53.8044 13.0997 54.5145V65.7145C13.0997 66.4245 13.6754 67.0002 14.3854 67.0002H22.4997C23.2098 67.0002 23.7854 66.4245 23.7854 65.7145V54.5145C23.7854 53.8044 23.2098 53.2288 22.4997 53.2288Z" fill="#012E71"/>
<path d="M36.9996 46.0715H28.8853C28.1752 46.0715 27.5996 46.6472 27.5996 47.3573V65.7001C27.5996 66.4102 28.1752 66.9858 28.8853 66.9858H36.9996C37.7097 66.9858 38.2853 66.4102 38.2853 65.7001V47.3573C38.2853 46.6472 37.7097 46.0715 36.9996 46.0715Z" fill="#012E71"/>
<path d="M51.4995 40.2429H43.3852C42.6751 40.2429 42.0995 40.8185 42.0995 41.5286V65.7143C42.0995 66.4244 42.6751 67.0001 43.3852 67.0001H51.4995C52.2096 67.0001 52.7852 66.4244 52.7852 65.7143V41.5286C52.7852 40.8185 52.2096 40.2429 51.4995 40.2429Z" fill="#012E71"/>
</svg>
