<svg width="68" height="68" viewBox="0 0 68 68" fill="none" xmlns="http://www.w3.org/2000/svg">
<path d="M21.3285 0.714495C17.9857 0.700209 14.8571 1.27164 12.0571 2.44307L20.4857 22.8716C20.8285 22.3002 21.2428 21.7716 21.7143 21.3002C22.7285 20.2859 23.9571 19.5859 25.3428 19.1716L33.1714 2.95735C29.1143 1.50021 25.0857 0.743066 21.3285 0.728781V0.714495ZM9.68568 3.65735C8.42854 4.41449 7.25712 5.3145 6.21426 6.37164C2.87141 9.71449 1.04282 14.1859 0.642822 19.2145L20.0714 33.3859C19.2857 31.0859 18.9857 28.8145 19.2143 26.7716L9.68568 3.65735ZM35.6571 3.92878L28.5142 18.7145C31 18.7145 33.7428 19.4145 36.4285 20.7716L56.5571 20.0145C55.2857 18.4573 53.9428 16.9574 52.5143 15.5288C47.3143 10.3288 41.4857 6.41449 35.6428 3.92878H35.6571ZM58.5571 22.6002L40.4 23.2859C41.2714 23.9716 42.1143 24.7002 42.9 25.4859C44.1428 26.7288 45.2143 28.0288 46.1143 29.3859L67.2714 44.8145C66.7857 37.7145 63.7857 29.8573 58.5571 22.6002Z" fill="#012E71"/>
<path d="M0.571411 22.4574C0.84284 29.7431 3.81427 37.8717 9.17142 45.4003L28.4 44.6717C27.5143 43.986 26.6857 43.2574 25.9 42.4574C24.6714 41.2288 23.6 39.9288 22.7 38.586L0.571411 22.4431V22.4574Z" fill="#3A55E0"/>
<path d="M48.7285 34.5859C49.5142 36.9002 49.8142 39.1717 49.5714 41.2145L58.9999 64.0574C59.9714 63.4145 60.8714 62.6717 61.6856 61.8431C65.2285 58.3002 67.0571 53.5145 67.2999 48.1288L48.7142 34.5859H48.7285Z" fill="#3A55E0"/>
<path d="M48.3 45.1002C47.9572 45.6716 47.5429 46.1859 47.0857 46.6574C46.0715 47.6716 44.8286 48.3717 43.4429 48.7859L35.3857 65.4859C43.1857 68.1431 50.7857 68.2002 56.6857 65.3859L48.3143 45.0859L48.3 45.1002Z" fill="#3A55E0"/>
<path d="M32.3714 47.1859L11.1571 47.9859C12.4714 49.6288 13.8857 51.2002 15.3714 52.6859C20.7714 58.0859 26.8286 62.0859 32.8714 64.5574L40.2714 49.2288C37.7857 49.2288 35.0571 48.5288 32.3857 47.1859H32.3714Z" fill="#3A55E0"/>
</svg>
