<svg width="100" height="100" viewBox="0 0 100 100" fill="none" xmlns="http://www.w3.org/2000/svg">
<path d="M75.3715 39.1001L73.5144 36.8429L69.6287 42.8287H67.6287L63.8572 35.6572H28.6144L19.4001 46.9858L50.5858 78.1858L81.7715 47.0001L75.3715 39.1001Z" fill="#3A55E0"/>
<path d="M86.1 28.4572C78.9857 25.1 73.2285 19.3429 69.8571 12.2286C69.6143 11.6857 69.1143 11.4286 68.6285 11.4286C68.1428 11.4286 67.6428 11.6857 67.3857 12.2286C64.4143 18.5286 59.5571 23.7572 53.5428 27.2C52.7714 27.6429 51.9571 28.0714 51.1428 28.4572C50.0857 28.9714 50.0857 30.4429 51.1428 30.9429C51.5143 31.1143 51.8714 31.3 52.2285 31.4857C54.8 32.8143 57.1714 34.4429 59.3 36.3714C62.6714 39.3714 65.4428 43.0429 67.3857 47.1714C67.6428 47.7143 68.1285 47.9714 68.6285 47.9714C69.1285 47.9714 69.6143 47.7143 69.8571 47.1714C71.1714 44.4143 72.8428 41.8572 74.8143 39.5572C75.8714 38.3143 77.0285 37.1572 78.2571 36.0857C79.3428 35.1286 80.4857 34.2572 81.6714 33.4714C83.0714 32.5143 84.5571 31.6714 86.1 30.9429C87.1571 30.4429 87.1571 28.9714 86.1 28.4572ZM75.5571 32.7572C74.2571 33.8714 73.0428 35.0857 71.9 36.3714C70.7143 37.7143 69.6143 39.1429 68.6285 40.6572C67.6285 39.1429 66.5428 37.7143 65.3428 36.3714C63.7571 34.5857 62.0143 32.9429 60.1285 31.4857C59.3428 30.8429 58.5143 30.2572 57.6714 29.7C58.8428 28.9286 59.9571 28.1 61.0285 27.2C63.9571 24.7857 66.5285 21.9286 68.6285 18.7429C71.4857 23.1 75.2285 26.8286 79.5714 29.7C79.3571 29.8429 79.1571 29.9714 78.9571 30.1286C77.7714 30.9286 76.6428 31.8143 75.5571 32.7572Z" fill="#FFC450"/>
<path d="M89.8857 43.5857L81.6714 33.4714C83.0714 32.5143 84.5571 31.6714 86.0999 30.9429C87.1571 30.4429 87.1571 28.9714 86.0999 28.4572C78.9857 25.1 73.2285 19.3429 69.8571 12.2286C69.6142 11.6857 69.1142 11.4286 68.6285 11.4286C68.1428 11.4286 67.6428 11.6857 67.3857 12.2286C64.4142 18.5286 59.5571 23.7572 53.5428 27.2H27.3142C25.5857 27.2 23.9714 27.9714 22.8857 29.3143L11.2857 43.5857C9.42852 45.8572 9.59994 49.1572 11.6857 51.2286L48.6714 88.2286C49.1999 88.7572 49.8857 89.0143 50.5857 89.0143C51.2857 89.0143 51.9714 88.7572 52.4999 88.2286L89.4857 51.2286C91.5714 49.1572 91.7428 45.8572 89.8857 43.5857ZM61.0285 27.2C63.9571 24.7857 66.5285 21.9286 68.6285 18.7429C71.4857 23.1 75.2285 26.8286 79.5714 29.7C79.3571 29.8429 79.1571 29.9714 78.9571 30.1286C77.7714 30.9286 76.6428 31.8143 75.5571 32.7572C74.2571 33.8714 73.0428 35.0857 71.8999 36.3714C70.7142 37.7143 69.6142 39.1429 68.6285 40.6572C67.6285 39.1429 66.5428 37.7143 65.3428 36.3714C63.7571 34.5857 62.0142 32.9429 60.1285 31.4857C59.3428 30.8429 58.5142 30.2572 57.6714 29.7C58.8428 28.9286 59.9571 28.1 61.0285 27.2ZM86.4571 48.2L50.5857 84.0714L14.7142 48.2C14.1857 47.6714 14.1428 46.8714 14.6142 46.2857L26.2142 32.0143C26.4857 31.6714 26.8857 31.4857 27.3142 31.4857H52.2285C54.7999 32.8143 57.1714 34.4429 59.2999 36.3714C62.6714 39.3714 65.4428 43.0429 67.3857 47.1714C67.6428 47.7143 68.1285 47.9714 68.6285 47.9714C69.1285 47.9714 69.6142 47.7143 69.8571 47.1714C71.1714 44.4143 72.8428 41.8572 74.8142 39.5572C75.8714 38.3143 77.0285 37.1572 78.2571 36.0857L86.5571 46.2857C87.0285 46.8714 86.9857 47.6714 86.4571 48.2Z" fill="#012E71"/>
</svg>
